<svg xmlns="http://www.w3.org/2000/svg" xmlns:xlink="http://www.w3.org/1999/xlink" width="500" zoomAndPan="magnify" viewBox="0 0 375 374.999991" height="500" preserveAspectRatio="xMidYMid meet" version="1.0"><defs><clipPath id="e08428c55e"><path d="M 37.5 80.4375 L 337.5 80.4375 L 337.5 294.9375 L 37.5 294.9375 Z M 37.5 80.4375 " clip-rule="nonzero"/></clipPath></defs><g clip-path="url(#e08428c55e)"><path fill="#e12100" d="M 57.460938 80.4375 L 317.539062 80.4375 C 318.1875 80.4375 318.835938 80.46875 319.484375 80.535156 C 320.128906 80.597656 320.773438 80.691406 321.410156 80.820312 C 322.046875 80.945312 322.679688 81.105469 323.300781 81.292969 C 323.921875 81.484375 324.535156 81.703125 325.132812 81.949219 C 325.734375 82.199219 326.320312 82.476562 326.894531 82.785156 C 327.46875 83.09375 328.023438 83.425781 328.566406 83.789062 C 329.105469 84.148438 329.628906 84.539062 330.128906 84.949219 C 330.632812 85.363281 331.113281 85.800781 331.574219 86.261719 C 332.035156 86.722656 332.46875 87.203125 332.882812 87.707031 C 333.292969 88.210938 333.679688 88.734375 334.042969 89.273438 C 334.402344 89.816406 334.738281 90.375 335.042969 90.949219 C 335.351562 91.523438 335.628906 92.109375 335.875 92.710938 C 336.125 93.3125 336.34375 93.925781 336.53125 94.550781 C 336.722656 95.171875 336.878906 95.804688 337.007812 96.441406 C 337.132812 97.082031 337.226562 97.722656 337.292969 98.371094 C 337.355469 99.019531 337.386719 99.671875 337.386719 100.320312 L 337.386719 275.054688 C 337.386719 275.703125 337.355469 276.355469 337.292969 277.003906 C 337.226562 277.652344 337.132812 278.292969 337.007812 278.933594 C 336.878906 279.570312 336.722656 280.203125 336.53125 280.824219 C 336.34375 281.449219 336.125 282.0625 335.875 282.664062 C 335.628906 283.265625 335.351562 283.851562 335.042969 284.425781 C 334.738281 285 334.402344 285.558594 334.042969 286.101562 C 333.679688 286.640625 333.292969 287.164062 332.882812 287.667969 C 332.46875 288.171875 332.035156 288.652344 331.574219 289.113281 C 331.113281 289.574219 330.632812 290.011719 330.128906 290.425781 C 329.628906 290.835938 329.105469 291.222656 328.566406 291.585938 C 328.023438 291.949219 327.46875 292.28125 326.894531 292.589844 C 326.320312 292.898438 325.734375 293.175781 325.132812 293.425781 C 324.535156 293.671875 323.921875 293.890625 323.300781 294.082031 C 322.679688 294.269531 322.046875 294.429688 321.410156 294.554688 C 320.773438 294.683594 320.128906 294.777344 319.484375 294.839844 C 318.835938 294.90625 318.1875 294.9375 317.539062 294.9375 L 57.460938 294.9375 C 56.8125 294.9375 56.164062 294.90625 55.515625 294.839844 C 54.871094 294.777344 54.226562 294.683594 53.589844 294.554688 C 52.953125 294.429688 52.320312 294.269531 51.699219 294.082031 C 51.078125 293.890625 50.464844 293.671875 49.867188 293.425781 C 49.265625 293.175781 48.679688 292.898438 48.105469 292.589844 C 47.53125 292.28125 46.976562 291.949219 46.433594 291.585938 C 45.894531 291.222656 45.371094 290.835938 44.871094 290.425781 C 44.367188 290.011719 43.886719 289.574219 43.425781 289.113281 C 42.964844 288.652344 42.53125 288.171875 42.117188 287.667969 C 41.707031 287.164062 41.320312 286.640625 40.957031 286.101562 C 40.597656 285.558594 40.261719 285 39.957031 284.425781 C 39.648438 283.851562 39.371094 283.265625 39.125 282.664062 C 38.875 282.0625 38.65625 281.449219 38.46875 280.824219 C 38.277344 280.203125 38.121094 279.570312 37.992188 278.933594 C 37.867188 278.292969 37.773438 277.652344 37.707031 277.003906 C 37.644531 276.355469 37.613281 275.703125 37.613281 275.054688 L 37.613281 100.320312 C 37.613281 99.671875 37.644531 99.019531 37.707031 98.371094 C 37.773438 97.722656 37.867188 97.082031 37.992188 96.441406 C 38.121094 95.804688 38.277344 95.171875 38.46875 94.550781 C 38.65625 93.925781 38.875 93.3125 39.125 92.710938 C 39.371094 92.109375 39.648438 91.523438 39.957031 90.949219 C 40.261719 90.375 40.597656 89.816406 40.957031 89.273438 C 41.320312 88.734375 41.707031 88.210938 42.117188 87.707031 C 42.53125 87.203125 42.964844 86.722656 43.425781 86.261719 C 43.886719 85.800781 44.367188 85.363281 44.871094 84.949219 C 45.371094 84.539062 45.894531 84.148438 46.433594 83.789062 C 46.976562 83.425781 47.53125 83.09375 48.105469 82.785156 C 48.679688 82.476562 49.265625 82.199219 49.867188 81.949219 C 50.464844 81.703125 51.078125 81.484375 51.699219 81.292969 C 52.320312 81.105469 52.953125 80.945312 53.589844 80.820312 C 54.226562 80.691406 54.871094 80.597656 55.515625 80.535156 C 56.164062 80.46875 56.8125 80.4375 57.460938 80.4375 Z M 57.460938 80.4375 " fill-opacity="1" fill-rule="nonzero"/></g><path fill="#ffd900" d="M 94.546875 100.171875 L 103.253906 127.003906 L 131.410156 127.003906 L 108.628906 143.585938 L 117.332031 170.410156 L 94.546875 153.828125 L 71.765625 170.410156 L 80.46875 143.585938 L 57.6875 127.003906 L 85.84375 127.003906 Z M 94.546875 100.171875 " fill-opacity="1" fill-rule="evenodd"/><path fill="#ffd900" d="M 140.800781 94.746094 L 143.347656 102.585938 L 151.570312 102.585938 L 144.910156 107.421875 L 147.457031 115.261719 L 140.800781 110.414062 L 134.152344 115.261719 L 136.6875 107.421875 L 130.039062 102.585938 L 138.261719 102.585938 Z M 140.800781 94.746094 " fill-opacity="1" fill-rule="evenodd"/><path fill="#ffd900" d="M 155.316406 115.261719 L 157.863281 123.089844 L 166.085938 123.089844 L 159.4375 127.9375 L 161.976562 135.777344 L 155.316406 130.929688 L 148.667969 135.777344 L 151.207031 127.9375 L 144.558594 123.089844 L 152.78125 123.089844 Z M 155.316406 115.261719 " fill-opacity="1" fill-rule="evenodd"/><path fill="#ffd900" d="M 155.316406 142.652344 L 157.863281 150.484375 L 166.085938 150.484375 L 159.4375 155.332031 L 161.976562 163.160156 L 155.316406 158.324219 L 148.667969 163.160156 L 151.207031 155.332031 L 144.558594 150.484375 L 152.78125 150.484375 Z M 155.316406 142.652344 " fill-opacity="1" fill-rule="evenodd"/><path fill="#ffd900" d="M 140.800781 165.992188 L 143.347656 173.832031 L 151.570312 173.832031 L 144.910156 178.667969 L 147.457031 186.507812 L 140.800781 181.671875 L 134.152344 186.507812 L 136.6875 178.667969 L 130.039062 173.832031 L 138.261719 173.832031 Z M 140.800781 165.992188 " fill-opacity="1" fill-rule="evenodd"/></svg>