<svg xmlns="http://www.w3.org/2000/svg" xmlns:xlink="http://www.w3.org/1999/xlink" width="500" zoomAndPan="magnify" viewBox="0 0 375 374.999991" height="500" preserveAspectRatio="xMidYMid meet" version="1.0"><defs><clipPath id="504667fddb"><path d="M 108 320 L 133 320 L 133 337.5 L 108 337.5 Z M 108 320 " clip-rule="nonzero"/></clipPath><clipPath id="e9e3169eef"><path d="M 124 320 L 139 320 L 139 337.5 L 124 337.5 Z M 124 320 " clip-rule="nonzero"/></clipPath><clipPath id="825b1d65fc"><path d="M 213 320 L 238 320 L 238 337.5 L 213 337.5 Z M 213 320 " clip-rule="nonzero"/></clipPath><clipPath id="caa239894c"><path d="M 208 320 L 222 320 L 222 337.5 L 208 337.5 Z M 208 320 " clip-rule="nonzero"/></clipPath></defs><path fill="#f39402" d="M 128.859375 328.902344 C 128.675781 328.902344 128.492188 328.882812 128.308594 328.851562 C 126.652344 328.546875 125.558594 326.960938 125.863281 325.308594 L 131.988281 291.933594 C 132.289062 290.28125 133.875 289.1875 135.53125 289.492188 C 137.183594 289.796875 138.273438 291.382812 137.972656 293.035156 L 131.847656 326.410156 C 131.578125 327.871094 130.296875 328.902344 128.859375 328.902344 " fill-opacity="1" fill-rule="nonzero"/><g clip-path="url(#504667fddb)"><path fill="#f39402" d="M 116.839844 337.351562 C 116 337.351562 115.160156 337 114.558594 336.316406 C 113.449219 335.054688 113.566406 333.132812 114.828125 332.023438 L 117.878906 329.335938 L 112.398438 330.71875 C 110.773438 331.128906 109.113281 330.144531 108.707031 328.515625 C 108.292969 326.882812 109.28125 325.230469 110.910156 324.816406 L 128.578125 320.359375 C 129.9375 320.011719 131.363281 320.644531 132.011719 321.890625 C 132.667969 323.128906 132.390625 324.660156 131.335938 325.589844 L 118.851562 336.585938 C 118.273438 337.097656 117.554688 337.351562 116.839844 337.351562 " fill-opacity="1" fill-rule="nonzero"/></g><g clip-path="url(#e9e3169eef)"><path fill="#f39402" d="M 127.269531 337.351562 C 127.054688 337.351562 126.835938 337.324219 126.617188 337.277344 C 124.976562 336.917969 123.9375 335.296875 124.292969 333.65625 L 126.347656 324.242188 C 126.59375 323.144531 127.417969 322.265625 128.5 321.960938 L 134.160156 320.375 C 135.777344 319.925781 137.457031 320.871094 137.910156 322.488281 C 138.363281 324.105469 137.417969 325.785156 135.800781 326.238281 L 131.90625 327.328125 L 130.238281 334.957031 C 129.929688 336.378906 128.671875 337.351562 127.269531 337.351562 " fill-opacity="1" fill-rule="nonzero"/></g><path fill="#f39402" d="M 217.308594 328.902344 C 217.488281 328.902344 217.675781 328.882812 217.863281 328.851562 C 219.515625 328.546875 220.605469 326.960938 220.304688 325.308594 L 214.179688 291.933594 C 213.878906 290.28125 212.296875 289.1875 210.640625 289.492188 C 208.988281 289.796875 207.890625 291.382812 208.195312 293.035156 L 214.320312 326.410156 C 214.589844 327.871094 215.867188 328.902344 217.308594 328.902344 " fill-opacity="1" fill-rule="nonzero"/><g clip-path="url(#825b1d65fc)"><path fill="#f39402" d="M 229.324219 337.351562 C 230.167969 337.351562 231.011719 337 231.613281 336.316406 C 232.722656 335.054688 232.601562 333.132812 231.335938 332.023438 L 228.292969 329.335938 L 233.769531 330.71875 C 235.398438 331.128906 237.050781 330.144531 237.464844 328.515625 C 237.878906 326.882812 236.890625 325.230469 235.257812 324.816406 L 217.589844 320.359375 C 216.226562 320.011719 214.808594 320.644531 214.152344 321.890625 C 213.496094 323.128906 213.78125 324.660156 214.832031 325.589844 L 227.3125 336.585938 C 227.894531 337.097656 228.609375 337.351562 229.324219 337.351562 " fill-opacity="1" fill-rule="nonzero"/></g><g clip-path="url(#caa239894c)"><path fill="#f39402" d="M 218.894531 337.351562 C 219.113281 337.351562 219.332031 337.324219 219.546875 337.277344 C 221.191406 336.917969 222.234375 335.296875 221.875 333.65625 L 219.816406 324.242188 C 219.578125 323.144531 218.753906 322.265625 217.664062 321.960938 L 212.011719 320.375 C 210.394531 319.925781 208.714844 320.871094 208.257812 322.488281 C 207.804688 324.105469 208.75 325.785156 210.367188 326.238281 L 214.261719 327.328125 L 215.925781 334.957031 C 216.238281 336.378906 217.5 337.351562 218.894531 337.351562 " fill-opacity="1" fill-rule="nonzero"/></g><path fill="#ffe81f" d="M 274.472656 205.363281 C 274.472656 269.621094 229.078125 297.445312 173.085938 297.445312 C 117.09375 297.445312 71.699219 269.621094 71.699219 205.363281 C 71.699219 141.101562 117.09375 64.738281 173.085938 64.738281 C 229.078125 64.738281 274.472656 141.101562 274.472656 205.363281 " fill-opacity="1" fill-rule="nonzero"/><path fill="#ffe81f" d="M 265.398438 175.421875 C 265.398438 175.421875 303.046875 159.089844 320.285156 166.800781 C 337.523438 174.515625 313.027344 187.667969 303.953125 189.03125 C 303.953125 189.03125 320.089844 193.582031 300.324219 203.546875 C 280.5625 213.511719 250.425781 197.648438 265.398438 175.421875 " fill-opacity="1" fill-rule="nonzero"/><path fill="#ffe81f" d="M 94.738281 171.96875 C 94.738281 171.96875 78.101562 127.246094 58.484375 117.425781 C 38.871094 107.601562 47.695312 138.46875 53.742188 147.4375 C 53.742188 147.4375 37.488281 136.375 45.121094 160.828125 C 52.757812 185.277344 88.929688 200.785156 94.738281 171.96875 " fill-opacity="1" fill-rule="nonzero"/><path fill="#f39402" d="M 161.917969 135.714844 C 165.625 134.332031 172.707031 132.917969 183.246094 135.925781 C 185.878906 136.679688 187.136719 139.738281 185.761719 142.105469 C 184.277344 144.667969 181.378906 148.253906 175.746094 152.910156 C 174.191406 154.195312 171.949219 154.230469 170.363281 152.976562 C 167.105469 150.40625 161.816406 145.839844 159.652344 141.730469 C 158.445312 139.441406 159.503906 136.617188 161.917969 135.714844 " fill-opacity="1" fill-rule="nonzero"/><path fill="#4f4843" d="M 134.976562 127.335938 C 134.976562 122.457031 131.015625 118.492188 126.132812 118.492188 C 121.246094 118.492188 117.289062 122.457031 117.289062 127.335938 C 117.289062 132.226562 121.246094 136.183594 126.132812 136.183594 C 131.015625 136.183594 134.976562 132.226562 134.976562 127.335938 " fill-opacity="1" fill-rule="nonzero"/><path fill="#4f4843" d="M 221.394531 127.335938 C 221.394531 122.457031 217.4375 118.492188 212.550781 118.492188 C 207.664062 118.492188 203.703125 122.457031 203.703125 127.335938 C 203.703125 132.226562 207.664062 136.183594 212.550781 136.183594 C 217.4375 136.183594 221.394531 132.226562 221.394531 127.335938 " fill-opacity="1" fill-rule="nonzero"/><path fill="#ffffff" d="M 124.6875 123.425781 C 124.6875 122.34375 123.8125 121.46875 122.730469 121.46875 C 121.652344 121.46875 120.777344 122.34375 120.777344 123.425781 C 120.777344 124.503906 121.652344 125.382812 122.730469 125.382812 C 123.8125 125.382812 124.6875 124.503906 124.6875 123.425781 " fill-opacity="1" fill-rule="nonzero"/><path fill="#ffffff" d="M 211.101562 123.425781 C 211.101562 122.34375 210.226562 121.46875 209.148438 121.46875 C 208.066406 121.46875 207.191406 122.34375 207.191406 123.425781 C 207.191406 124.503906 208.066406 125.382812 209.148438 125.382812 C 210.226562 125.382812 211.101562 124.503906 211.101562 123.425781 " fill-opacity="1" fill-rule="nonzero"/><path fill="#ffe81f" d="M 232.28125 275.675781 C 232.28125 261.8125 221.046875 250.585938 207.191406 250.585938 C 193.332031 250.585938 182.101562 261.8125 182.101562 275.675781 C 182.101562 289.53125 193.332031 300.765625 207.191406 300.765625 C 221.046875 300.765625 232.28125 289.53125 232.28125 275.675781 " fill-opacity="1" fill-rule="nonzero"/><path fill="#ffe81f" d="M 163.640625 275.675781 C 163.640625 261.8125 152.40625 250.585938 138.542969 250.585938 C 124.6875 250.585938 113.453125 261.8125 113.453125 275.675781 C 113.453125 289.53125 124.6875 300.765625 138.542969 300.765625 C 152.40625 300.765625 163.640625 289.53125 163.640625 275.675781 " fill-opacity="1" fill-rule="nonzero"/><path fill="#ffe81f" d="M 166.46875 54.199219 C 167.027344 49.796875 165.796875 43.5625 162.605469 40.371094 C 160.910156 38.671875 158.09375 37.65625 155.28125 38.308594 C 145.058594 40.675781 149.152344 56.886719 151.921875 61.355469 C 156.492188 68.742188 165.21875 73.761719 174.375 76.761719 L 175.019531 73.957031 C 175.019531 73.957031 165.046875 65.433594 166.46875 54.199219 " fill-opacity="1" fill-rule="nonzero"/><path fill="#ffe81f" d="M 180.636719 60.738281 C 183.078125 57.101562 184.875 51.019531 183.695312 46.71875 C 183.070312 44.425781 181.210938 42.230469 178.605469 41.503906 C 169.136719 38.871094 165.199219 55.105469 165.453125 60.339844 C 165.878906 68.996094 170.785156 77.476562 176.957031 84.367188 L 178.757812 82.183594 C 178.757812 82.183594 174.402344 70.023438 180.636719 60.738281 " fill-opacity="1" fill-rule="nonzero"/><path fill="#ffe81f" d="M 187.230469 72.121094 C 191.613281 71.429688 197.253906 68.5 199.429688 64.542969 C 200.582031 62.441406 200.765625 59.457031 199.355469 56.933594 C 194.222656 47.777344 179.808594 56.242188 176.289062 60.148438 C 170.476562 66.605469 168.09375 76.390625 167.777344 86.019531 L 170.652344 85.863281 C 170.652344 85.863281 176.046875 73.894531 187.230469 72.121094 " fill-opacity="1" fill-rule="nonzero"/><path fill="#35373a" d="M 220.582031 157.261719 C 208.632812 157.261719 198.539062 151.671875 192.222656 141.921875 C 190.703125 139.582031 189.402344 137.003906 188.351562 134.207031 C 188.203125 133.824219 188.066406 133.433594 187.929688 133.042969 C 187.351562 131.371094 186.882812 129.683594 186.523438 128.011719 C 186.136719 126.195312 185.875 124.394531 185.738281 122.628906 C 185.570312 120.5625 185.585938 118.550781 185.757812 116.628906 C 185.757812 116.625 185.757812 116.625 185.757812 116.625 C 185.667969 116.566406 185.582031 116.507812 185.503906 116.433594 C 177.527344 108.957031 170.101562 108.957031 162.128906 116.433594 C 162.042969 116.511719 161.949219 116.574219 161.855469 116.636719 C 161.855469 116.644531 161.855469 116.644531 161.855469 116.644531 C 161.964844 117.734375 162.011719 118.863281 162.011719 120.003906 C 162.011719 124.359375 161.246094 129.03125 159.652344 133.636719 C 154.300781 149.125 141.839844 158.371094 126.316406 158.371094 C 113.136719 158.371094 102.148438 151.695312 95.871094 140.1875 C 95.140625 138.867188 94.484375 137.484375 93.886719 136.039062 C 93.570312 135.257812 93.265625 134.457031 92.980469 133.636719 C 92.785156 133.070312 92.597656 132.5 92.429688 131.933594 C 91.332031 128.28125 90.75 124.621094 90.648438 121.132812 C 90.394531 112.90625 92.835938 105.660156 97.613281 101.914062 C 102.367188 98.179688 107.238281 96.960938 111.582031 96.972656 C 115.253906 96.984375 118.554688 97.871094 121.085938 98.859375 C 121.683594 99.097656 122.238281 99.332031 122.746094 99.570312 C 123.445312 99.890625 124.175781 100.113281 124.914062 100.238281 C 126.585938 100.511719 128.316406 100.292969 129.890625 99.570312 C 130.445312 99.3125 131.066406 99.042969 131.734375 98.792969 C 137.28125 96.664062 146.332031 95.09375 155.027344 101.914062 C 157.808594 104.09375 159.792969 107.460938 160.917969 111.511719 C 160.917969 111.519531 160.917969 111.519531 160.917969 111.519531 C 169.375 104.65625 178.203125 104.644531 186.660156 111.476562 C 187.765625 107.457031 189.726562 104.117188 192.46875 101.960938 C 197.738281 97.828125 203.144531 96.839844 207.789062 97.179688 C 209.484375 97.296875 211.085938 97.601562 212.53125 97.992188 C 214.300781 98.472656 215.855469 99.082031 217.109375 99.660156 C 217.394531 99.789062 217.6875 99.90625 217.988281 100 C 219.964844 100.660156 222.128906 100.539062 224.046875 99.660156 C 225.777344 98.863281 228.054688 98.011719 230.6875 97.527344 C 235.847656 96.566406 242.371094 97 248.683594 101.960938 C 255.652344 107.425781 257.566406 120.496094 253.226562 133.042969 C 247.988281 148.207031 235.78125 157.261719 220.582031 157.261719 " fill-opacity="1" fill-rule="nonzero"/><path fill="#ffffff" d="M 96.003906 127.808594 L 117.933594 102.503906 C 115.992188 101.882812 113.835938 101.453125 111.5625 101.453125 C 110.152344 101.453125 108.699219 101.621094 107.21875 102.003906 L 95.410156 115.628906 C 94.875 119.3125 95.054688 123.527344 96.003906 127.808594 " fill-opacity="1" fill-rule="nonzero"/><path fill="#ffffff" d="M 126.480469 104.851562 C 124.847656 104.875 123.214844 104.585938 121.660156 103.984375 L 97.234375 132.167969 L 97.234375 132.175781 C 97.765625 133.695312 98.367188 135.144531 99.039062 136.519531 L 126.480469 104.851562 " fill-opacity="1" fill-rule="nonzero"/><path fill="#ffffff" d="M 190.351562 123.597656 L 209.1875 101.847656 C 208.210938 101.6875 207.195312 101.597656 206.152344 101.597656 C 205.390625 101.597656 204.609375 101.644531 203.816406 101.757812 L 190.183594 117.492188 C 190.050781 119.4375 190.101562 121.484375 190.351562 123.597656 " fill-opacity="1" fill-rule="nonzero"/><path fill="#ffffff" d="M 224.953125 104.144531 C 221.792969 105.300781 218.308594 105.167969 215.222656 103.742188 C 215.109375 103.695312 214.992188 103.640625 214.878906 103.585938 L 191.761719 130.265625 C 191.890625 130.703125 192.03125 131.132812 192.183594 131.570312 C 193.027344 134.011719 194.078125 136.285156 195.316406 138.347656 L 224.953125 104.144531 " fill-opacity="1" fill-rule="nonzero"/></svg>