<svg xmlns="http://www.w3.org/2000/svg" xmlns:xlink="http://www.w3.org/1999/xlink" width="500" zoomAndPan="magnify" viewBox="0 0 375 374.999991" height="500" preserveAspectRatio="xMidYMid meet" version="1.0"><defs><clipPath id="29f6bffcb7"><path d="M 37.5 62.589844 L 146 62.589844 L 146 138 L 37.5 138 Z M 37.5 62.589844 " clip-rule="nonzero"/></clipPath><clipPath id="aa1e527aba"><path d="M 229 62.589844 L 337.5 62.589844 L 337.5 138 L 229 138 Z M 229 62.589844 " clip-rule="nonzero"/></clipPath><clipPath id="7294e177ee"><path d="M 187 137 L 337.5 137 L 337.5 312.339844 L 187 312.339844 Z M 187 137 " clip-rule="nonzero"/></clipPath><clipPath id="3fc676b9e8"><path d="M 37.5 62.589844 L 255 62.589844 L 255 312.339844 L 37.5 312.339844 Z M 37.5 62.589844 " clip-rule="nonzero"/></clipPath><clipPath id="e29738f947"><path d="M 120 137 L 255 137 L 255 312.339844 L 120 312.339844 Z M 120 137 " clip-rule="nonzero"/></clipPath></defs><g clip-path="url(#29f6bffcb7)"><path fill="#bdddf4" d="M 145.863281 62.589844 L 95.902344 62.589844 L 37.613281 137.515625 L 120.882812 137.515625 Z M 145.863281 62.589844 " fill-opacity="1" fill-rule="nonzero"/></g><g clip-path="url(#aa1e527aba)"><path fill="#5dadec" d="M 337.386719 137.515625 L 279.097656 62.589844 L 229.132812 62.589844 L 254.117188 137.515625 Z M 337.386719 137.515625 " fill-opacity="1" fill-rule="nonzero"/></g><g clip-path="url(#7294e177ee)"><path fill="#4289c1" d="M 254.117188 137.515625 L 337.386719 137.515625 L 187.5 312.339844 Z M 254.117188 137.515625 " fill-opacity="1" fill-rule="nonzero"/></g><g clip-path="url(#3fc676b9e8)"><path fill="#8ccaf7" d="M 120.882812 137.515625 L 37.613281 137.515625 L 187.5 312.339844 Z M 145.863281 62.589844 L 120.882812 137.515625 L 254.117188 137.515625 L 229.132812 62.589844 Z M 145.863281 62.589844 " fill-opacity="1" fill-rule="nonzero"/></g><g clip-path="url(#e29738f947)"><path fill="#5dadec" d="M 187.5 312.339844 L 120.882812 137.515625 L 254.117188 137.515625 Z M 187.5 312.339844 " fill-opacity="1" fill-rule="nonzero"/></g></svg>