<svg xmlns="http://www.w3.org/2000/svg" xmlns:xlink="http://www.w3.org/1999/xlink" width="500" zoomAndPan="magnify" viewBox="0 0 375 374.999991" height="500" preserveAspectRatio="xMidYMid meet" version="1.0"><defs><clipPath id="87d9877b0a"><path d="M 37.5 37.5 L 337.5 37.5 L 337.5 337.5 L 37.5 337.5 Z M 37.5 37.5 " clip-rule="nonzero"/></clipPath></defs><g clip-path="url(#87d9877b0a)"><path fill="#ffffff" d="M 187.5 37.5 C 183.957031 37.5 180.421875 37.625 176.890625 37.875 C 171.902344 38.230469 166.933594 38.832031 162.003906 39.683594 C 157.074219 40.53125 152.191406 41.628906 147.375 42.96875 C 142.554688 44.304688 137.808594 45.882812 133.144531 47.695312 C 128.484375 49.507812 123.917969 51.550781 119.460938 53.820312 C 115.003906 56.085938 110.660156 58.578125 106.453125 61.28125 C 102.246094 63.980469 98.175781 66.894531 94.257812 70 C 90.339844 73.109375 86.582031 76.414062 82.992188 79.898438 C 79.40625 83.382812 75.996094 87.042969 72.773438 90.867188 C 69.550781 94.691406 66.523438 98.675781 63.699219 102.804688 C 60.875 106.929688 58.257812 111.199219 55.863281 115.585938 C 53.464844 119.976562 51.289062 124.480469 49.339844 129.085938 C 47.390625 133.695312 45.675781 138.394531 44.199219 143.171875 C 42.722656 147.949219 41.484375 152.796875 40.488281 157.699219 C 39.496094 162.601562 38.75 167.550781 38.25 172.523438 C 37.75 177.5 37.5 182.5 37.5 187.5 C 37.5 191.039062 37.625 194.578125 37.875 198.109375 C 38.226562 203.097656 38.832031 208.066406 39.679688 212.996094 C 40.53125 217.925781 41.628906 222.808594 42.964844 227.625 C 44.304688 232.445312 45.882812 237.191406 47.695312 241.855469 C 49.507812 246.515625 51.550781 251.082031 53.816406 255.539062 C 56.085938 259.996094 58.574219 264.335938 61.277344 268.546875 C 63.980469 272.753906 66.890625 276.824219 70 280.742188 C 73.109375 284.660156 76.410156 288.417969 79.894531 292.007812 C 83.378906 295.59375 87.042969 299.003906 90.867188 302.226562 C 94.691406 305.449219 98.675781 308.476562 102.800781 311.300781 C 106.929688 314.125 111.195312 316.742188 115.585938 319.136719 C 119.976562 321.535156 124.480469 323.710938 129.085938 325.660156 C 133.691406 327.609375 138.394531 329.324219 143.171875 330.800781 C 147.949219 332.277344 152.796875 333.515625 157.699219 334.511719 C 162.601562 335.503906 167.546875 336.25 172.523438 336.75 C 177.5 337.25 182.496094 337.5 187.5 337.5 C 191.039062 337.5 194.578125 337.375 198.109375 337.125 C 203.097656 336.769531 208.066406 336.167969 212.996094 335.316406 C 217.921875 334.46875 222.804688 333.371094 227.625 332.035156 C 232.441406 330.695312 237.191406 329.117188 241.851562 327.304688 C 246.515625 325.492188 251.082031 323.449219 255.539062 321.179688 C 259.996094 318.914062 264.335938 316.421875 268.546875 313.722656 C 272.753906 311.019531 276.824219 308.109375 280.742188 305 C 284.660156 301.890625 288.417969 298.585938 292.003906 295.105469 C 295.59375 291.621094 299.003906 287.957031 302.226562 284.132812 C 305.445312 280.308594 308.476562 276.324219 311.300781 272.195312 C 314.125 268.070312 316.738281 263.800781 319.136719 259.414062 C 321.535156 255.023438 323.710938 250.519531 325.660156 245.914062 C 327.605469 241.304688 329.320312 236.605469 330.800781 231.828125 C 332.277344 227.050781 333.515625 222.203125 334.507812 217.300781 C 335.503906 212.398438 336.25 207.449219 336.75 202.476562 C 337.25 197.5 337.5 192.5 337.5 187.5 C 337.5 183.960938 337.375 180.421875 337.125 176.890625 C 336.769531 171.902344 336.167969 166.933594 335.316406 162.003906 C 334.46875 157.078125 333.371094 152.195312 332.03125 147.375 C 330.695312 142.558594 329.117188 137.808594 327.304688 133.148438 C 325.492188 128.484375 323.449219 123.917969 321.179688 119.460938 C 318.914062 115.003906 316.421875 110.664062 313.71875 106.453125 C 311.019531 102.246094 308.105469 98.175781 305 94.257812 C 301.890625 90.339844 298.585938 86.582031 295.101562 82.996094 C 291.617188 79.40625 287.957031 75.996094 284.132812 72.773438 C 280.308594 69.550781 276.324219 66.523438 272.195312 63.699219 C 268.070312 60.875 263.800781 58.261719 259.414062 55.863281 C 255.023438 53.464844 250.519531 51.289062 245.914062 49.339844 C 241.304688 47.394531 236.605469 45.675781 231.824219 44.199219 C 227.050781 42.722656 222.199219 41.484375 217.300781 40.488281 C 212.398438 39.496094 207.449219 38.75 202.476562 38.25 C 197.5 37.75 192.5 37.5 187.5 37.5 Z M 187.5 37.5 " fill-opacity="1" fill-rule="nonzero"/><path fill="#ff0000" d="M 187.5 37.5 C 183.957031 37.5 180.421875 37.625 176.890625 37.875 C 173.882812 38.148438 170.886719 38.511719 167.902344 38.964844 L 167.902344 157.625 L 40.507812 157.625 C 40.503906 157.648438 40.496094 157.675781 40.488281 157.699219 C 39.496094 162.601562 38.75 167.550781 38.25 172.527344 C 37.75 177.5 37.5 182.5 37.5 187.5 C 37.5 191.039062 37.625 194.578125 37.875 198.113281 C 38.226562 203.101562 38.832031 208.066406 39.679688 212.996094 C 40.101562 215.066406 40.5625 217.125 41.070312 219.175781 L 167.902344 219.175781 L 167.902344 336.054688 C 169.4375 336.308594 170.980469 336.542969 172.523438 336.75 C 177.5 337.25 182.496094 337.5 187.5 337.5 C 191.039062 337.5 194.578125 337.375 198.109375 337.125 C 201.019531 336.855469 203.917969 336.503906 206.804688 336.070312 L 206.804688 219.175781 L 334.03125 219.175781 C 334.195312 218.550781 334.351562 217.925781 334.507812 217.300781 C 335.503906 212.398438 336.25 207.453125 336.75 202.476562 C 337.25 197.5 337.5 192.5 337.5 187.5 C 337.5 183.960938 337.375 180.421875 337.125 176.890625 C 336.769531 171.902344 336.167969 166.933594 335.316406 162.007812 C 335.011719 160.539062 334.683594 159.078125 334.335938 157.625 L 206.804688 157.625 L 206.804688 38.90625 C 205.367188 38.667969 203.921875 38.449219 202.476562 38.25 C 197.5 37.75 192.5 37.5 187.5 37.5 Z M 284.625 73.234375 L 220.214844 136.414062 L 242.957031 136.414062 L 296.808594 84.9375 C 296.246094 84.285156 295.675781 83.636719 295.101562 82.996094 C 291.769531 79.578125 288.273438 76.320312 284.625 73.234375 Z M 78.714844 84.488281 C 76.675781 86.558594 74.691406 88.683594 72.773438 90.867188 C 70.90625 93.175781 69.109375 95.539062 67.386719 97.957031 L 107.625 136.417969 L 133.046875 136.417969 Z M 154.492188 240.378906 L 130.757812 240.378906 L 78.460938 290.367188 C 78.933594 290.917969 79.414062 291.460938 79.894531 292.003906 C 83.375 295.585938 87.027344 298.988281 90.84375 302.203125 L 154.492188 240.375 Z M 241.828125 240.378906 L 295.339844 291.523438 C 297.714844 289.136719 300.011719 286.671875 302.226562 284.132812 C 303.789062 282.179688 305.304688 280.1875 306.769531 278.15625 L 267.242188 240.378906 Z M 241.828125 240.378906 " fill-opacity="1" fill-rule="nonzero"/></g><path fill="#000080" d="M 220.144531 41.214844 L 220.144531 123.207031 L 278.085938 68.179688 C 276.160156 66.636719 274.195312 65.144531 272.195312 63.699219 C 268.070312 60.875 263.800781 58.261719 259.414062 55.863281 C 255.023438 53.464844 250.519531 51.289062 245.914062 49.339844 C 241.304688 47.394531 236.605469 45.675781 231.824219 44.199219 C 227.972656 43.046875 224.078125 42.054688 220.144531 41.214844 Z M 154.402344 41.390625 C 152.046875 41.859375 149.703125 42.386719 147.375 42.96875 C 142.554688 44.304688 137.808594 45.882812 133.144531 47.695312 C 128.484375 49.507812 123.917969 51.550781 119.460938 53.820312 C 115.003906 56.085938 110.660156 58.578125 106.453125 61.28125 C 103.078125 63.492188 99.792969 65.839844 96.609375 68.320312 L 154.402344 123.207031 Z M 311.398438 103.207031 L 276.632812 136.371094 L 328.375 136.371094 C 328.03125 135.292969 327.675781 134.21875 327.304688 133.148438 C 325.492188 128.484375 323.449219 123.917969 321.179688 119.460938 C 318.914062 115.003906 316.421875 110.664062 313.71875 106.453125 C 312.960938 105.363281 312.183594 104.277344 311.398438 103.207031 Z M 63.234375 103.5625 C 60.589844 107.453125 58.128906 111.464844 55.863281 115.585938 C 53.464844 119.976562 51.289062 124.480469 49.339844 129.085938 C 48.390625 131.492188 47.503906 133.921875 46.679688 136.371094 L 97.625 136.371094 Z M 47.105469 240.082031 C 47.296875 240.675781 47.492188 241.265625 47.695312 241.855469 C 49.507812 246.515625 51.550781 251.082031 53.816406 255.539062 C 56.085938 259.996094 58.574219 264.335938 61.277344 268.546875 C 62.140625 269.789062 63.023438 271.023438 63.921875 272.238281 L 97.625 240.082031 Z M 276.632812 240.082031 L 310.878906 272.75 C 311.019531 272.566406 311.160156 272.382812 311.300781 272.195312 C 314.125 268.070312 316.738281 263.800781 319.136719 259.414062 C 321.535156 255.023438 323.710938 250.519531 325.660156 245.914062 C 326.40625 243.984375 327.117188 242.039062 327.785156 240.082031 Z M 154.402344 252.449219 L 97.042969 306.921875 C 98.925781 308.425781 100.847656 309.886719 102.800781 311.300781 C 106.929688 314.125 111.195312 316.742188 115.585938 319.136719 C 119.976562 321.535156 124.480469 323.710938 129.085938 325.660156 C 133.691406 327.609375 138.394531 329.324219 143.171875 330.800781 C 146.875 331.902344 150.625 332.859375 154.402344 333.667969 Z M 220.144531 252.449219 L 220.144531 333.710938 C 222.652344 333.21875 225.144531 332.65625 227.625 332.035156 C 232.441406 330.695312 237.191406 329.117188 241.851562 327.304688 C 246.515625 325.492188 251.082031 323.449219 255.539062 321.179688 C 259.996094 318.914062 264.335938 316.421875 268.546875 313.722656 C 271.691406 311.644531 274.757812 309.453125 277.738281 307.144531 Z M 220.144531 252.449219 " fill-opacity="1" fill-rule="evenodd"/></svg>