<svg xmlns="http://www.w3.org/2000/svg" xmlns:xlink="http://www.w3.org/1999/xlink" width="500" zoomAndPan="magnify" viewBox="0 0 375 374.999991" height="500" preserveAspectRatio="xMidYMid meet" version="1.0"><defs><clipPath id="5e35f12cf1"><path d="M 37.5 151 L 61 151 L 61 180 L 37.5 180 Z M 37.5 151 " clip-rule="nonzero"/></clipPath><clipPath id="51c04d3b61"><path d="M 174 41.25 L 196 41.25 L 196 79 L 174 79 Z M 174 41.25 " clip-rule="nonzero"/></clipPath><clipPath id="9e920ee7ac"><path d="M 314 151 L 337.5 151 L 337.5 180 L 314 180 Z M 314 151 " clip-rule="nonzero"/></clipPath><clipPath id="788f92c5a4"><path d="M 132 145 L 246 145 L 246 333.75 L 132 333.75 Z M 132 145 " clip-rule="nonzero"/></clipPath></defs><g clip-path="url(#5e35f12cf1)"><path fill="#ffdbcf" d="M 59.46875 179.824219 L 49.589844 179.824219 C 42.910156 179.824219 37.5 174.414062 37.5 167.726562 L 37.5 164.039062 C 37.5 157.359375 42.910156 151.949219 49.589844 151.949219 L 59.46875 151.949219 C 60.050781 151.949219 60.519531 152.414062 60.519531 152.996094 L 60.519531 178.777344 C 60.519531 179.359375 60.050781 179.824219 59.46875 179.824219 " fill-opacity="1" fill-rule="nonzero"/></g><path fill="#ff7171" d="M 228.515625 146.886719 L 133.640625 149.042969 C 133.640625 149.042969 129.984375 199.453125 138.917969 221.601562 C 205.792969 243.761719 242.179688 196.296875 242.179688 196.296875 C 239.949219 166.277344 228.515625 146.886719 228.515625 146.886719 " fill-opacity="1" fill-rule="nonzero"/><path fill="#2da5a2" d="M 75.515625 201.414062 C 65.207031 201.414062 56.859375 193.066406 56.859375 182.757812 L 56.859375 149.003906 C 56.859375 138.703125 65.207031 130.347656 75.515625 130.347656 C 85.8125 130.347656 94.160156 138.703125 94.160156 149.003906 L 94.160156 182.757812 C 94.160156 193.066406 85.8125 201.414062 75.515625 201.414062 " fill-opacity="1" fill-rule="nonzero"/><path fill="#ffc9bb" d="M 253.316406 189.226562 L 121.273438 189.226562 L 121.273438 142.609375 L 253.316406 142.609375 L 253.316406 189.226562 " fill-opacity="1" fill-rule="nonzero"/><g clip-path="url(#51c04d3b61)"><path fill="#ffb95c" d="M 186.175781 78.175781 L 183.945312 78.175781 C 180.628906 78.175781 177.828125 75.738281 177.363281 72.460938 L 174.722656 49.242188 C 174.160156 45.238281 177.265625 41.667969 181.308594 41.667969 L 188.816406 41.667969 C 192.855469 41.667969 195.960938 45.238281 195.398438 49.242188 L 192.757812 72.460938 C 192.292969 75.738281 189.492188 78.175781 186.175781 78.175781 " fill-opacity="1" fill-rule="nonzero"/></g><path fill="#ffb95c" d="M 137.996094 95.667969 L 136.117188 96.859375 C 133.316406 98.632812 129.640625 98.070312 127.496094 95.546875 L 112.851562 77.347656 C 110.242188 74.269531 110.945312 69.582031 114.367188 67.421875 L 120.710938 63.410156 C 124.125 61.246094 128.660156 62.609375 130.316406 66.296875 L 140.5 87.3125 C 141.863281 90.332031 140.796875 93.898438 137.996094 95.667969 " fill-opacity="1" fill-rule="nonzero"/><path fill="#ffb95c" d="M 232.125 95.667969 L 234.003906 96.859375 C 236.804688 98.632812 240.480469 98.070312 242.625 95.546875 L 257.269531 77.347656 C 259.878906 74.269531 259.175781 69.582031 255.753906 67.421875 L 249.410156 63.410156 C 246 61.246094 241.464844 62.609375 239.804688 66.296875 L 229.621094 87.3125 C 228.257812 90.332031 229.324219 93.898438 232.125 95.667969 " fill-opacity="1" fill-rule="nonzero"/><path fill="#44bcbc" d="M 101.027344 221.277344 C 87.128906 221.277344 75.859375 210.007812 75.859375 196.105469 L 75.859375 135.664062 C 75.859375 121.765625 87.128906 110.492188 101.027344 110.492188 C 114.9375 110.492188 126.199219 121.765625 126.199219 135.664062 L 126.199219 196.105469 C 126.199219 210.007812 114.9375 221.277344 101.027344 221.277344 " fill-opacity="1" fill-rule="nonzero"/><g clip-path="url(#9e920ee7ac)"><path fill="#ffdbcf" d="M 315.53125 179.824219 L 325.398438 179.824219 C 332.078125 179.824219 337.5 174.414062 337.5 167.726562 L 337.5 164.039062 C 337.5 157.359375 332.078125 151.949219 325.398438 151.949219 L 315.53125 151.949219 C 314.949219 151.949219 314.480469 152.414062 314.480469 152.996094 L 314.480469 178.777344 C 314.480469 179.359375 314.949219 179.824219 315.53125 179.824219 " fill-opacity="1" fill-rule="nonzero"/></g><path fill="#2da5a2" d="M 299.484375 201.414062 C 309.792969 201.414062 318.140625 193.066406 318.140625 182.757812 L 318.140625 149.003906 C 318.140625 138.703125 309.792969 130.347656 299.484375 130.347656 C 289.1875 130.347656 280.839844 138.703125 280.839844 149.003906 L 280.839844 182.757812 C 280.839844 193.066406 289.1875 201.414062 299.484375 201.414062 " fill-opacity="1" fill-rule="nonzero"/><path fill="#44bcbc" d="M 273.972656 221.277344 C 287.871094 221.277344 299.132812 210.007812 299.132812 196.105469 L 299.132812 135.664062 C 299.132812 121.765625 287.871094 110.492188 273.972656 110.492188 C 260.0625 110.492188 248.800781 121.765625 248.800781 135.664062 L 248.800781 196.105469 C 248.800781 210.007812 260.0625 221.277344 273.972656 221.277344 " fill-opacity="1" fill-rule="nonzero"/><path fill="#ff7171" d="M 154.46875 182.53125 C 148.417969 182.53125 143.519531 177.632812 143.519531 171.59375 L 143.519531 145.363281 C 143.519531 139.3125 148.417969 134.417969 154.46875 134.417969 C 160.507812 134.417969 165.414062 139.3125 165.414062 145.363281 L 165.414062 171.59375 C 165.414062 177.632812 160.507812 182.53125 154.46875 182.53125 " fill-opacity="1" fill-rule="nonzero"/><path fill="#ff7171" d="M 176.351562 181.214844 C 170.3125 181.214844 165.414062 176.320312 165.414062 170.269531 L 165.414062 136.636719 C 165.414062 130.597656 170.3125 125.699219 176.351562 125.699219 C 182.394531 125.699219 187.300781 130.597656 187.300781 136.636719 L 187.300781 170.269531 C 187.300781 176.320312 182.394531 181.214844 176.351562 181.214844 " fill-opacity="1" fill-rule="nonzero"/><path fill="#ff7171" d="M 198.246094 178.832031 C 192.195312 178.832031 187.300781 173.925781 187.300781 167.886719 L 187.300781 132.941406 C 187.300781 126.898438 192.195312 121.992188 198.246094 121.992188 C 204.289062 121.992188 209.183594 126.898438 209.183594 132.941406 L 209.183594 167.886719 C 209.183594 173.925781 204.289062 178.832031 198.246094 178.832031 " fill-opacity="1" fill-rule="nonzero"/><path fill="#ff7171" d="M 220.132812 178.832031 C 214.082031 178.832031 209.183594 173.925781 209.183594 167.886719 L 209.183594 134.253906 C 209.183594 128.214844 214.082031 123.316406 220.132812 123.316406 C 226.171875 123.316406 231.070312 128.214844 231.070312 134.253906 L 231.070312 167.886719 C 231.070312 173.925781 226.171875 178.832031 220.132812 178.832031 " fill-opacity="1" fill-rule="nonzero"/><g clip-path="url(#788f92c5a4)"><path fill="#ff8c83" d="M 132.46875 189.226562 C 132.46875 218.164062 147.628906 247.222656 147.628906 272.59375 L 147.628906 325.964844 C 147.628906 330.121094 151 333.492188 155.15625 333.492188 L 213.84375 333.492188 C 217.996094 333.492188 221.371094 330.121094 221.371094 325.964844 L 221.371094 269.058594 C 221.371094 259.710938 224.410156 250.613281 230.105469 243.210938 C 235.9375 235.636719 242.035156 225.367188 244.894531 213.074219 C 247.445312 202.109375 244.84375 190.570312 238.367188 181.367188 C 238.367188 181.367188 222.292969 157.207031 216.0625 149.824219 C 211.574219 144.496094 203.152344 144.898438 198.238281 149.824219 C 193.3125 154.75 194.113281 162.035156 198.238281 167.65625 C 201.847656 172.582031 205.746094 180.0625 208.679688 186.152344 C 210.605469 190.152344 207.957031 194.925781 203.523438 195.238281 C 194.96875 195.859375 188.644531 200.785156 184.308594 206.320312 C 180.851562 210.730469 174.074219 210.722656 170.789062 206.1875 C 162.957031 195.382812 150.972656 188.914062 132.46875 189.226562 " fill-opacity="1" fill-rule="nonzero"/></g></svg>