<svg xmlns="http://www.w3.org/2000/svg" xmlns:xlink="http://www.w3.org/1999/xlink" width="500" zoomAndPan="magnify" viewBox="0 0 375 374.999991" height="500" preserveAspectRatio="xMidYMid meet" version="1.0"><defs><clipPath id="1e485f22f7"><path d="M 37.5 37.5 L 337.5 37.5 L 337.5 337.5 L 37.5 337.5 Z M 37.5 37.5 " clip-rule="nonzero"/></clipPath><clipPath id="afc1bfb240"><path d="M 158 82 L 291 82 L 291 337.5 L 158 337.5 Z M 158 82 " clip-rule="nonzero"/></clipPath></defs><g clip-path="url(#1e485f22f7)"><path fill="#3d5a98" d="M 320.921875 337.476562 C 330.0625 337.476562 337.476562 330.066406 337.476562 320.921875 L 337.476562 54.054688 C 337.476562 44.910156 330.0625 37.5 320.921875 37.5 L 54.054688 37.5 C 44.910156 37.5 37.5 44.910156 37.5 54.054688 L 37.5 320.921875 C 37.5 330.066406 44.910156 337.476562 54.054688 337.476562 Z M 320.921875 337.476562 " fill-opacity="1" fill-rule="nonzero"/></g><g clip-path="url(#afc1bfb240)"><path fill="#ffffff" d="M 244.480469 337.476562 L 244.480469 221.3125 L 283.472656 221.3125 L 289.308594 176.039062 L 244.480469 176.039062 L 244.480469 147.132812 C 244.480469 134.027344 248.117188 125.09375 266.914062 125.09375 L 290.886719 125.082031 L 290.886719 84.589844 C 286.742188 84.039062 272.511719 82.808594 255.957031 82.808594 C 221.390625 82.808594 197.726562 103.90625 197.726562 142.652344 L 197.726562 176.039062 L 158.632812 176.039062 L 158.632812 221.308594 L 197.726562 221.308594 L 197.726562 337.476562 Z M 244.480469 337.476562 " fill-opacity="1" fill-rule="nonzero"/></g></svg>