<svg xmlns="http://www.w3.org/2000/svg" xmlns:xlink="http://www.w3.org/1999/xlink" width="500" zoomAndPan="magnify" viewBox="0 0 375 374.999991" height="500" preserveAspectRatio="xMidYMid meet" version="1.0"><defs><clipPath id="1579542772"><path d="M 137 37.5 L 238 37.5 L 238 337.5 L 137 337.5 Z M 137 37.5 " clip-rule="nonzero"/></clipPath><clipPath id="71ef4d268a"><path d="M 237 46 L 337.5 46 L 337.5 329 L 237 329 Z M 237 46 " clip-rule="nonzero"/></clipPath><clipPath id="75fe6ddd72"><path d="M 37.5 46 L 138 46 L 138 329 L 37.5 329 Z M 37.5 46 " clip-rule="nonzero"/></clipPath></defs><g clip-path="url(#1579542772)"><path fill="#ededed" d="M 237.511719 46.035156 L 237.511719 328.964844 C 221.882812 334.503906 205.058594 337.5 187.5 337.5 C 169.941406 337.5 153.117188 334.503906 137.484375 328.964844 L 137.484375 46.035156 C 153.160156 40.496094 169.980469 37.5 187.5 37.5 C 205.019531 37.5 221.882812 40.496094 237.511719 46.035156 Z M 237.511719 46.035156 " fill-opacity="1" fill-rule="nonzero"/></g><g clip-path="url(#71ef4d268a)"><path fill="#f4263f" d="M 337.5 187.5 C 337.5 197.757812 336.472656 207.808594 334.503906 217.492188 C 333.109375 224.34375 331.261719 231.03125 328.964844 237.472656 C 313.910156 280.101562 280.140625 313.867188 237.515625 328.925781 L 237.515625 46.035156 C 280.140625 61.089844 313.910156 94.898438 328.964844 137.484375 C 331.261719 143.96875 333.109375 150.65625 334.503906 157.46875 C 336.472656 167.191406 337.5 177.242188 337.5 187.5 Z M 337.5 187.5 " fill-opacity="1" fill-rule="nonzero"/></g><g clip-path="url(#75fe6ddd72)"><path fill="#001aa0" d="M 137.484375 46.035156 L 137.484375 328.964844 C 94.898438 313.910156 61.089844 280.140625 46.035156 237.511719 C 43.734375 231.03125 41.890625 224.34375 40.496094 217.53125 C 38.527344 207.808594 37.5 197.796875 37.5 187.5 C 37.5 177.242188 38.527344 167.191406 40.496094 157.507812 C 41.890625 150.65625 43.734375 143.96875 46.035156 137.527344 C 61.089844 94.898438 94.898438 61.089844 137.484375 46.035156 Z M 137.484375 46.035156 " fill-opacity="1" fill-rule="nonzero"/></g></svg>