<svg xmlns="http://www.w3.org/2000/svg" xmlns:xlink="http://www.w3.org/1999/xlink" width="500" zoomAndPan="magnify" viewBox="0 0 375 374.999991" height="500" preserveAspectRatio="xMidYMid meet" version="1.0"><defs><clipPath id="e16bcbb5bf"><path d="M 182 337 L 193 337 L 193 337.5 L 182 337.5 Z M 182 337 " clip-rule="nonzero"/></clipPath><clipPath id="96771206c0"><path d="M 37.5 133 L 337.5 133 L 337.5 242 L 37.5 242 Z M 37.5 133 " clip-rule="nonzero"/></clipPath><clipPath id="085b601484"><path d="M 47 37.5 L 328 37.5 L 328 134 L 47 134 Z M 47 37.5 " clip-rule="nonzero"/></clipPath><clipPath id="ed34c49ac3"><path d="M 47 241 L 328 241 L 328 337.5 L 47 337.5 Z M 47 241 " clip-rule="nonzero"/></clipPath></defs><g clip-path="url(#e16bcbb5bf)"><path fill="#ed1d24" d="M 187.464844 337.449219 C 189.164062 337.449219 190.859375 337.410156 192.546875 337.355469 L 182.378906 337.355469 C 184.066406 337.410156 185.761719 337.449219 187.464844 337.449219 " fill-opacity="1" fill-rule="nonzero"/></g><g clip-path="url(#96771206c0)"><path fill="#ed1d24" d="M 47.507812 133.433594 C 41.03125 150.199219 37.46875 168.414062 37.46875 187.464844 C 37.46875 206.476562 41.019531 224.660156 47.472656 241.402344 L 327.449219 241.402344 C 333.902344 224.660156 337.449219 206.476562 337.449219 187.464844 C 337.449219 168.414062 333.890625 150.199219 327.417969 133.433594 L 47.507812 133.433594 " fill-opacity="1" fill-rule="nonzero"/></g><g clip-path="url(#085b601484)"><path fill="#100f0d" d="M 187.464844 37.46875 C 123.671875 37.46875 69.191406 77.292969 47.507812 133.433594 L 327.417969 133.433594 C 305.726562 77.292969 251.246094 37.46875 187.464844 37.46875 " fill-opacity="1" fill-rule="nonzero"/></g><g clip-path="url(#ed34c49ac3)"><path fill="#f7ed08" d="M 182.378906 337.355469 L 192.546875 337.355469 C 254.164062 335.300781 306.359375 296.082031 327.449219 241.402344 L 47.472656 241.402344 C 68.558594 296.082031 120.761719 335.300781 182.378906 337.355469 " fill-opacity="1" fill-rule="nonzero"/></g></svg>