<svg xmlns="http://www.w3.org/2000/svg" xmlns:xlink="http://www.w3.org/1999/xlink" width="500" zoomAndPan="magnify" viewBox="0 0 375 374.999991" height="500" preserveAspectRatio="xMidYMid meet" version="1.0"><defs><clipPath id="a24d6a859c"><path d="M 37.5 82.5 L 337.5 82.5 L 337.5 292.5 L 37.5 292.5 Z M 37.5 82.5 " clip-rule="nonzero"/></clipPath></defs><path fill="#eeeeee" d="M 52.5 97.5 L 322.5 97.5 L 322.5 277.5 L 52.5 277.5 Z M 52.5 97.5 " fill-opacity="1" fill-rule="nonzero"/><g clip-path="url(#a24d6a859c)"><path fill="#bd4b4b" d="M 322.5 292.5 L 52.5 292.5 C 51.515625 292.5 50.539062 292.40625 49.574219 292.214844 C 48.605469 292.019531 47.667969 291.738281 46.757812 291.359375 C 45.847656 290.984375 44.984375 290.523438 44.164062 289.976562 C 43.34375 289.425781 42.585938 288.804688 41.890625 288.109375 C 41.195312 287.414062 40.574219 286.65625 40.023438 285.835938 C 39.476562 285.015625 39.015625 284.152344 38.640625 283.242188 C 38.261719 282.332031 37.980469 281.394531 37.785156 280.425781 C 37.59375 279.460938 37.5 278.484375 37.5 277.5 L 37.5 97.5 C 37.5 96.515625 37.59375 95.539062 37.785156 94.574219 C 37.980469 93.605469 38.261719 92.667969 38.640625 91.757812 C 39.015625 90.847656 39.476562 89.984375 40.023438 89.164062 C 40.574219 88.34375 41.195312 87.585938 41.890625 86.890625 C 42.585938 86.195312 43.34375 85.574219 44.164062 85.023438 C 44.984375 84.476562 45.847656 84.015625 46.757812 83.640625 C 47.667969 83.261719 48.605469 82.980469 49.574219 82.785156 C 50.539062 82.59375 51.515625 82.5 52.5 82.5 L 322.5 82.5 C 323.484375 82.5 324.460938 82.59375 325.425781 82.785156 C 326.394531 82.980469 327.332031 83.261719 328.242188 83.640625 C 329.152344 84.015625 330.015625 84.476562 330.835938 85.023438 C 331.65625 85.574219 332.414062 86.195312 333.109375 86.890625 C 333.804688 87.585938 334.425781 88.34375 334.976562 89.164062 C 335.523438 89.984375 335.984375 90.847656 336.359375 91.757812 C 336.738281 92.667969 337.019531 93.605469 337.214844 94.574219 C 337.40625 95.539062 337.5 96.515625 337.5 97.5 L 337.5 277.5 C 337.5 278.484375 337.40625 279.460938 337.214844 280.425781 C 337.019531 281.394531 336.738281 282.332031 336.359375 283.242188 C 335.984375 284.152344 335.523438 285.015625 334.976562 285.835938 C 334.425781 286.65625 333.804688 287.414062 333.109375 288.109375 C 332.414062 288.804688 331.65625 289.425781 330.835938 289.976562 C 330.015625 290.523438 329.152344 290.984375 328.242188 291.359375 C 327.332031 291.738281 326.394531 292.019531 325.425781 292.214844 C 324.460938 292.40625 323.484375 292.5 322.5 292.5 Z M 67.5 262.5 L 307.5 262.5 L 307.5 112.5 L 67.5 112.5 Z M 67.5 262.5 " fill-opacity="1" fill-rule="nonzero"/></g><path fill="#bd4b4b" d="M 187.5 202.5 C 185.140625 202.5 182.902344 201.972656 180.789062 200.917969 L 90.789062 155.917969 C 89.914062 155.476562 89.085938 154.953125 88.308594 154.347656 C 87.535156 153.742188 86.824219 153.070312 86.179688 152.324219 C 85.539062 151.582031 84.972656 150.78125 84.488281 149.925781 C 84.003906 149.070312 83.605469 148.175781 83.296875 147.242188 C 82.984375 146.308594 82.769531 145.355469 82.648438 144.378906 C 82.523438 143.402344 82.5 142.425781 82.570312 141.445312 C 82.640625 140.460938 82.804688 139.496094 83.066406 138.550781 C 83.324219 137.601562 83.675781 136.6875 84.113281 135.808594 C 84.554688 134.925781 85.074219 134.097656 85.679688 133.320312 C 86.28125 132.546875 86.953125 131.835938 87.695312 131.1875 C 88.4375 130.542969 89.238281 129.976562 90.089844 129.488281 C 90.945312 129.003906 91.839844 128.601562 92.769531 128.289062 C 93.703125 127.976562 94.660156 127.757812 95.632812 127.636719 C 96.609375 127.511719 97.585938 127.484375 98.570312 127.550781 C 99.550781 127.617188 100.515625 127.78125 101.464844 128.039062 C 102.414062 128.296875 103.328125 128.644531 104.210938 129.082031 L 187.5 170.726562 L 270.789062 129.082031 C 271.671875 128.640625 272.589844 128.285156 273.539062 128.023438 C 274.492188 127.761719 275.457031 127.59375 276.441406 127.523438 C 277.425781 127.449219 278.40625 127.476562 279.386719 127.597656 C 280.363281 127.71875 281.324219 127.9375 282.257812 128.246094 C 283.195312 128.558594 284.089844 128.957031 284.949219 129.445312 C 285.804688 129.933594 286.609375 130.5 287.355469 131.144531 C 288.097656 131.792969 288.773438 132.503906 289.378906 133.28125 C 289.984375 134.0625 290.507812 134.894531 290.949219 135.773438 C 291.390625 136.65625 291.742188 137.574219 292 138.527344 C 292.261719 139.476562 292.425781 140.445312 292.496094 141.429688 C 292.566406 142.414062 292.539062 143.394531 292.414062 144.375 C 292.289062 145.351562 292.070312 146.308594 291.757812 147.246094 C 291.445312 148.179688 291.042969 149.078125 290.554688 149.933594 C 290.0625 150.789062 289.496094 151.589844 288.847656 152.332031 C 288.199219 153.078125 287.484375 153.75 286.703125 154.355469 C 285.925781 154.957031 285.09375 155.480469 284.210938 155.917969 L 194.210938 200.917969 C 192.097656 201.972656 189.859375 202.5 187.5 202.5 Z M 187.5 202.5 " fill-opacity="1" fill-rule="nonzero"/><path fill="#bd4b4b" d="M 202.5 247.5 L 172.5 247.5 C 171.515625 247.5 170.539062 247.402344 169.574219 247.210938 C 168.609375 247.019531 167.667969 246.734375 166.757812 246.359375 C 165.851562 245.980469 164.984375 245.519531 164.167969 244.972656 C 163.347656 244.425781 162.589844 243.804688 161.894531 243.105469 C 161.195312 242.410156 160.574219 241.652344 160.027344 240.832031 C 159.480469 240.015625 159.019531 239.148438 158.640625 238.238281 C 158.265625 237.332031 157.980469 236.390625 157.789062 235.425781 C 157.597656 234.460938 157.5 233.484375 157.5 232.5 C 157.5 231.515625 157.597656 230.539062 157.789062 229.574219 C 157.980469 228.609375 158.265625 227.667969 158.640625 226.757812 C 159.019531 225.851562 159.480469 224.984375 160.027344 224.167969 C 160.574219 223.347656 161.195312 222.589844 161.894531 221.894531 C 162.589844 221.195312 163.347656 220.574219 164.167969 220.027344 C 164.984375 219.480469 165.851562 219.019531 166.757812 218.640625 C 167.667969 218.265625 168.609375 217.980469 169.574219 217.789062 C 170.539062 217.597656 171.515625 217.5 172.5 217.5 L 202.5 217.5 C 203.484375 217.5 204.460938 217.597656 205.425781 217.789062 C 206.390625 217.980469 207.332031 218.265625 208.238281 218.640625 C 209.148438 219.019531 210.015625 219.480469 210.832031 220.027344 C 211.652344 220.574219 212.410156 221.195312 213.105469 221.894531 C 213.804688 222.589844 214.425781 223.347656 214.972656 224.167969 C 215.519531 224.984375 215.980469 225.851562 216.359375 226.757812 C 216.734375 227.667969 217.019531 228.609375 217.210938 229.574219 C 217.402344 230.539062 217.5 231.515625 217.5 232.5 C 217.5 233.484375 217.402344 234.460938 217.210938 235.425781 C 217.019531 236.390625 216.734375 237.332031 216.359375 238.238281 C 215.980469 239.148438 215.519531 240.015625 214.972656 240.832031 C 214.425781 241.652344 213.804688 242.410156 213.105469 243.105469 C 212.410156 243.804688 211.652344 244.425781 210.832031 244.972656 C 210.015625 245.519531 209.148438 245.980469 208.238281 246.359375 C 207.332031 246.734375 206.390625 247.019531 205.425781 247.210938 C 204.460938 247.402344 203.484375 247.5 202.5 247.5 Z M 202.5 247.5 " fill-opacity="1" fill-rule="nonzero"/></svg>