<svg xmlns="http://www.w3.org/2000/svg" xmlns:xlink="http://www.w3.org/1999/xlink" width="500" zoomAndPan="magnify" viewBox="0 0 375 374.999991" height="500" preserveAspectRatio="xMidYMid meet" version="1.0"><defs><clipPath id="5b39f6be35"><path d="M 37.5 49 L 130 49 L 130 326 L 37.5 326 Z M 37.5 49 " clip-rule="nonzero"/></clipPath><clipPath id="957dba6452"><path d="M 129 37.5 L 253.910156 37.5 L 253.910156 337.484375 L 129 337.484375 Z M 129 37.5 " clip-rule="nonzero"/></clipPath><clipPath id="51d6f67202"><path d="M 245.765625 49.1875 L 337.484375 49.1875 L 337.484375 325.8125 L 245.765625 325.8125 Z M 245.765625 49.1875 " clip-rule="nonzero"/></clipPath></defs><g clip-path="url(#5b39f6be35)"><path fill="#46bc50" d="M 107.328125 60.652344 C 98.0625 66.535156 89.378906 73.480469 81.429688 81.429688 C 53.101562 109.757812 37.5 147.429688 37.5 187.492188 C 37.5 227.558594 53.101562 265.222656 81.429688 293.554688 C 89.378906 301.503906 98.0625 308.445312 107.328125 314.328125 C 114.253906 318.726562 121.515625 322.507812 129.03125 325.6875 L 129.03125 49.292969 C 121.515625 52.476562 114.253906 56.257812 107.328125 60.652344 " fill-opacity="1" fill-rule="nonzero"/></g><g clip-path="url(#957dba6452)"><path fill="#ffffff" d="M 187.496094 37.5 C 167.074219 37.5 147.285156 41.570312 129.03125 49.292969 L 129.03125 325.6875 C 147.285156 333.414062 167.074219 337.484375 187.496094 337.484375 C 210.886719 337.484375 233.449219 332.148438 253.828125 322.082031 L 253.828125 52.90625 C 233.449219 42.839844 210.886719 37.5 187.496094 37.5 " fill-opacity="1" fill-rule="nonzero"/></g><g clip-path="url(#51d6f67202)"><path fill="#ee2332" d="M 245.945312 325.6875 C 249.679688 323.84375 261.230469 318.25 264.808594 316.089844 C 275.144531 309.847656 284.796875 302.308594 293.554688 293.554688 C 321.882812 265.226562 337.484375 227.558594 337.484375 187.492188 C 337.484375 147.429688 321.882812 109.761719 293.554688 81.429688 C 284.796875 72.671875 275.144531 65.136719 264.808594 58.894531 C 261.230469 56.734375 249.679688 51.140625 245.945312 49.292969 L 245.945312 325.6875 " fill-opacity="1" fill-rule="nonzero"/></g></svg>