<svg xmlns="http://www.w3.org/2000/svg" xmlns:xlink="http://www.w3.org/1999/xlink" width="500" zoomAndPan="magnify" viewBox="0 0 375 374.999991" height="500" preserveAspectRatio="xMidYMid meet" version="1.0"><defs><clipPath id="4299e3d09d"><path d="M 37.5 37.5 L 337.5 37.5 L 337.5 337.5 L 37.5 337.5 Z M 37.5 37.5 " clip-rule="nonzero"/></clipPath></defs><g clip-path="url(#4299e3d09d)"><path fill="#ffffff" d="M 337.5 187.5 C 337.5 270.34375 270.34375 337.5 187.5 337.5 C 104.65625 337.5 37.5 270.34375 37.5 187.5 C 37.5 104.65625 104.65625 37.5 187.5 37.5 C 270.34375 37.5 337.5 104.65625 337.5 187.5 Z M 337.5 187.5 " fill-opacity="1" fill-rule="evenodd"/></g><path fill="#e94b35" d="M 262.5 187.5 C 262.5 228.90625 228.90625 262.5 187.5 262.5 C 146.09375 262.5 112.5 228.90625 112.5 187.5 C 112.5 146.09375 146.09375 112.5 187.5 112.5 C 228.90625 112.5 262.5 146.09375 262.5 187.5 Z M 262.5 187.5 " fill-opacity="1" fill-rule="evenodd"/></svg>