<svg xmlns="http://www.w3.org/2000/svg" xmlns:xlink="http://www.w3.org/1999/xlink" width="500" zoomAndPan="magnify" viewBox="0 0 375 374.999991" height="500" preserveAspectRatio="xMidYMid meet" version="1.0"><defs><clipPath id="36295e7cdd"><path d="M 37.5 79.226562 L 337.5 79.226562 L 337.5 295.976562 L 37.5 295.976562 Z M 37.5 79.226562 " clip-rule="nonzero"/></clipPath></defs><g clip-path="url(#36295e7cdd)"><path fill="#eeeeee" d="M 337.410156 262.632812 C 337.410156 281.046875 322.496094 295.976562 304.097656 295.976562 L 70.902344 295.976562 C 52.503906 295.976562 37.589844 281.046875 37.589844 262.632812 L 37.589844 112.574219 C 37.589844 94.15625 52.503906 79.226562 70.902344 79.226562 L 304.097656 79.226562 C 322.496094 79.226562 337.410156 94.15625 337.410156 112.574219 Z M 337.410156 262.632812 " fill-opacity="1" fill-rule="nonzero"/></g><path fill="#ed1b2f" d="M 245.800781 187.601562 C 245.800781 189.511719 245.707031 191.421875 245.519531 193.320312 C 245.332031 195.222656 245.050781 197.113281 244.679688 198.988281 C 244.304688 200.863281 243.84375 202.714844 243.289062 204.542969 C 242.734375 206.371094 242.09375 208.167969 241.359375 209.933594 C 240.628906 211.699219 239.816406 213.425781 238.914062 215.109375 C 238.015625 216.796875 237.035156 218.433594 235.972656 220.023438 C 234.914062 221.613281 233.777344 223.144531 232.566406 224.621094 C 231.355469 226.101562 230.074219 227.515625 228.722656 228.867188 C 227.375 230.21875 225.960938 231.5 224.484375 232.710938 C 223.007812 233.925781 221.476562 235.0625 219.890625 236.125 C 218.300781 237.183594 216.664062 238.167969 214.980469 239.066406 C 213.296875 239.96875 211.574219 240.785156 209.808594 241.515625 C 208.046875 242.246094 206.25 242.890625 204.421875 243.445312 C 202.597656 244 200.746094 244.464844 198.875 244.835938 C 197 245.210938 195.113281 245.488281 193.214844 245.675781 C 191.3125 245.863281 189.410156 245.957031 187.5 245.957031 C 185.589844 245.957031 183.6875 245.863281 181.785156 245.675781 C 179.886719 245.488281 178 245.210938 176.125 244.835938 C 174.253906 244.464844 172.402344 244 170.578125 243.445312 C 168.75 242.890625 166.953125 242.246094 165.191406 241.515625 C 163.425781 240.785156 161.703125 239.96875 160.019531 239.066406 C 158.335938 238.167969 156.699219 237.183594 155.109375 236.125 C 153.523438 235.0625 151.992188 233.925781 150.515625 232.710938 C 149.039062 231.5 147.625 230.21875 146.277344 228.867188 C 144.925781 227.515625 143.644531 226.101562 142.433594 224.621094 C 141.222656 223.144531 140.085938 221.613281 139.027344 220.023438 C 137.964844 218.433594 136.984375 216.796875 136.085938 215.109375 C 135.183594 213.425781 134.371094 211.699219 133.640625 209.933594 C 132.90625 208.167969 132.265625 206.371094 131.710938 204.542969 C 131.15625 202.714844 130.695312 200.863281 130.320312 198.988281 C 129.949219 197.113281 129.667969 195.222656 129.480469 193.320312 C 129.292969 191.421875 129.199219 189.511719 129.199219 187.601562 C 129.199219 185.691406 129.292969 183.785156 129.480469 181.882812 C 129.667969 179.980469 129.949219 178.09375 130.320312 176.21875 C 130.695312 174.34375 131.15625 172.492188 131.710938 170.664062 C 132.265625 168.832031 132.90625 167.035156 133.640625 165.269531 C 134.371094 163.503906 135.183594 161.777344 136.085938 160.09375 C 136.984375 158.40625 137.964844 156.769531 139.027344 155.179688 C 140.085938 153.59375 141.222656 152.058594 142.433594 150.582031 C 143.644531 149.105469 144.925781 147.691406 146.277344 146.339844 C 147.625 144.988281 149.039062 143.707031 150.515625 142.492188 C 151.992188 141.28125 153.523438 140.144531 155.109375 139.082031 C 156.699219 138.019531 158.335938 137.039062 160.019531 136.136719 C 161.703125 135.234375 163.425781 134.421875 165.191406 133.6875 C 166.953125 132.957031 168.75 132.3125 170.578125 131.757812 C 172.402344 131.203125 174.253906 130.742188 176.125 130.367188 C 178 129.996094 179.886719 129.714844 181.785156 129.527344 C 183.6875 129.339844 185.589844 129.246094 187.5 129.246094 C 189.410156 129.246094 191.3125 129.339844 193.214844 129.527344 C 195.113281 129.714844 197 129.996094 198.875 130.367188 C 200.746094 130.742188 202.597656 131.203125 204.421875 131.757812 C 206.25 132.3125 208.046875 132.957031 209.808594 133.6875 C 211.574219 134.421875 213.296875 135.234375 214.980469 136.136719 C 216.664062 137.039062 218.300781 138.019531 219.890625 139.082031 C 221.476562 140.144531 223.007812 141.28125 224.484375 142.492188 C 225.960938 143.707031 227.375 144.988281 228.722656 146.339844 C 230.074219 147.691406 231.355469 149.105469 232.566406 150.582031 C 233.777344 152.058594 234.914062 153.59375 235.972656 155.179688 C 237.035156 156.769531 238.015625 158.40625 238.914062 160.09375 C 239.816406 161.777344 240.628906 163.503906 241.359375 165.269531 C 242.09375 167.035156 242.734375 168.832031 243.289062 170.664062 C 243.84375 172.492188 244.304688 174.34375 244.679688 176.21875 C 245.050781 178.09375 245.332031 179.980469 245.519531 181.882812 C 245.707031 183.785156 245.800781 185.691406 245.800781 187.601562 Z M 245.800781 187.601562 " fill-opacity="1" fill-rule="nonzero"/></svg>