<svg xmlns="http://www.w3.org/2000/svg" xmlns:xlink="http://www.w3.org/1999/xlink" width="500" zoomAndPan="magnify" viewBox="0 0 375 374.999991" height="500" preserveAspectRatio="xMidYMid meet" version="1.0"><defs><clipPath id="71cff0d482"><path d="M 58 66.75 L 317 66.75 L 317 213 L 58 213 Z M 58 66.75 " clip-rule="nonzero"/></clipPath><clipPath id="df8b95d209"><path d="M 37.5 275 L 337.5 275 L 337.5 308.25 L 37.5 308.25 Z M 37.5 275 " clip-rule="nonzero"/></clipPath></defs><path fill="#ffcd00" d="M 122.714844 281.59375 L 61.96875 281.59375 C 60.351562 281.59375 59.039062 280.285156 59.039062 278.667969 L 59.039062 238.289062 C 59.039062 236.667969 60.351562 235.355469 61.96875 235.355469 L 122.714844 235.355469 C 124.332031 235.355469 125.648438 236.667969 125.648438 238.289062 L 125.648438 278.667969 C 125.648438 280.285156 124.332031 281.59375 122.714844 281.59375 Z M 122.714844 281.59375 " fill-opacity="1" fill-rule="evenodd"/><path fill="#ffcd00" d="M 217.875 281.59375 L 157.125 281.59375 C 155.507812 281.59375 154.199219 280.285156 154.199219 278.667969 L 154.199219 238.289062 C 154.199219 236.667969 155.507812 235.355469 157.125 235.355469 L 217.875 235.355469 C 219.492188 235.355469 220.800781 236.667969 220.800781 238.289062 L 220.800781 278.667969 C 220.800781 280.285156 219.492188 281.59375 217.875 281.59375 Z M 217.875 281.59375 " fill-opacity="1" fill-rule="evenodd"/><path fill="#ffcd00" d="M 313.03125 281.59375 L 252.285156 281.59375 C 250.667969 281.59375 249.359375 280.285156 249.359375 278.667969 L 249.359375 238.289062 C 249.359375 236.667969 250.667969 235.355469 252.285156 235.355469 L 313.03125 235.355469 C 314.648438 235.355469 315.960938 236.667969 315.960938 238.289062 L 315.960938 278.667969 C 315.960938 280.285156 314.648438 281.59375 313.03125 281.59375 Z M 313.03125 281.59375 " fill-opacity="1" fill-rule="evenodd"/><path fill="#ffb900" d="M 217.875 241.21875 L 157.125 241.21875 C 155.507812 241.21875 154.199219 239.90625 154.199219 238.289062 L 154.199219 201.753906 C 154.199219 198.019531 157.234375 194.980469 160.972656 194.980469 L 214.027344 194.980469 C 217.765625 194.980469 220.800781 198.019531 220.800781 201.753906 L 220.800781 238.289062 C 220.800781 239.90625 219.492188 241.21875 217.875 241.21875 Z M 217.875 241.21875 " fill-opacity="1" fill-rule="evenodd"/><path fill="#ffb900" d="M 313.03125 241.21875 L 252.285156 241.21875 C 250.667969 241.21875 249.359375 239.90625 249.359375 238.289062 L 249.359375 197.910156 C 249.359375 196.296875 250.667969 194.980469 252.285156 194.980469 L 313.03125 194.980469 C 314.648438 194.980469 315.960938 196.289062 315.960938 197.910156 L 315.960938 238.289062 C 315.960938 239.90625 314.648438 241.21875 313.03125 241.21875 Z M 313.03125 241.21875 " fill-opacity="1" fill-rule="evenodd"/><path fill="#ffa700" d="M 313.03125 200.839844 L 252.285156 200.839844 C 250.667969 200.839844 249.351562 199.53125 249.351562 197.914062 L 249.351562 161.382812 C 249.351562 157.648438 252.394531 154.601562 256.132812 154.601562 L 309.1875 154.601562 C 312.925781 154.601562 315.960938 157.648438 315.960938 161.382812 L 315.960938 197.914062 C 315.960938 199.53125 314.648438 200.839844 313.03125 200.839844 Z M 313.03125 200.839844 " fill-opacity="1" fill-rule="evenodd"/><g clip-path="url(#71cff0d482)"><path fill="#fee500" d="M 111.402344 212.121094 C 110.921875 212.121094 110.4375 212.003906 109.988281 211.757812 L 92.339844 202.042969 L 74.6875 211.757812 C 73.691406 212.304688 72.472656 212.226562 71.550781 211.566406 C 70.636719 210.898438 70.1875 209.757812 70.398438 208.640625 L 74.183594 188.847656 L 59.488281 175.070312 C 58.664062 174.289062 58.359375 173.105469 58.710938 172.023438 C 59.054688 170.945312 60 170.167969 61.125 170.019531 L 81.121094 167.511719 L 89.6875 149.273438 C 90.171875 148.242188 91.207031 147.585938 92.339844 147.585938 C 93.476562 147.585938 94.507812 148.242188 94.988281 149.273438 L 103.5625 167.511719 L 123.554688 170.019531 C 124.679688 170.167969 125.625 170.945312 125.976562 172.023438 C 126.328125 173.105469 126.023438 174.289062 125.195312 175.070312 L 110.496094 188.847656 L 114.28125 208.644531 C 114.5 209.757812 114.046875 210.898438 113.128906 211.566406 C 112.617188 211.933594 112.011719 212.121094 111.402344 212.121094 Z M 301.722656 131.371094 C 301.238281 131.371094 300.75 131.246094 300.3125 131.007812 L 282.660156 121.289062 L 265.003906 131.007812 C 264.011719 131.550781 262.792969 131.476562 261.871094 130.808594 C 260.953125 130.144531 260.5 129 260.71875 127.886719 L 264.503906 108.097656 L 249.804688 94.308594 C 248.976562 93.535156 248.671875 92.351562 249.023438 91.273438 C 249.375 90.1875 250.320312 89.40625 251.445312 89.265625 L 271.4375 86.757812 L 280.007812 68.515625 C 280.492188 67.488281 281.523438 66.832031 282.660156 66.832031 C 283.792969 66.832031 284.828125 67.488281 285.3125 68.515625 L 293.878906 86.757812 L 313.867188 89.265625 C 315 89.40625 315.9375 90.1875 316.289062 91.273438 C 316.640625 92.351562 316.335938 93.535156 315.511719 94.308594 L 300.816406 108.097656 L 304.597656 127.886719 C 304.8125 129.007812 304.363281 130.144531 303.441406 130.808594 C 302.933594 131.183594 302.328125 131.371094 301.722656 131.371094 Z M 168.4375 171.742188 C 167.828125 171.742188 167.222656 171.554688 166.710938 171.1875 C 165.796875 170.519531 165.347656 169.378906 165.558594 168.265625 L 169.34375 148.476562 L 154.648438 134.6875 C 153.816406 133.910156 153.511719 132.726562 153.863281 131.644531 C 154.214844 130.566406 155.160156 129.785156 156.285156 129.644531 L 176.28125 127.128906 L 184.847656 108.894531 C 185.332031 107.867188 186.363281 107.210938 187.5 107.210938 C 188.636719 107.210938 189.667969 107.867188 190.152344 108.894531 L 198.71875 127.128906 L 218.714844 129.644531 C 219.839844 129.785156 220.785156 130.566406 221.136719 131.644531 C 221.488281 132.726562 221.175781 133.910156 220.351562 134.6875 L 205.65625 148.476562 L 209.441406 168.265625 C 209.652344 169.378906 209.203125 170.519531 208.289062 171.1875 C 207.367188 171.855469 206.148438 171.929688 205.152344 171.378906 L 187.5 161.664062 L 169.847656 171.378906 C 169.402344 171.625 168.921875 171.742188 168.4375 171.742188 Z M 168.4375 171.742188 " fill-opacity="1" fill-rule="evenodd"/></g><g clip-path="url(#df8b95d209)"><path fill="#ff5966" d="M 333.195312 308.167969 L 41.804688 308.167969 C 39.429688 308.167969 37.492188 306.234375 37.492188 303.859375 L 37.492188 280.046875 C 37.492188 277.671875 39.429688 275.734375 41.804688 275.734375 L 333.195312 275.734375 C 335.570312 275.734375 337.503906 277.671875 337.503906 280.046875 L 337.503906 303.859375 C 337.503906 306.234375 335.570312 308.167969 333.195312 308.167969 Z M 333.195312 308.167969 " fill-opacity="1" fill-rule="evenodd"/></g></svg>