<svg xmlns="http://www.w3.org/2000/svg" xmlns:xlink="http://www.w3.org/1999/xlink" width="500" zoomAndPan="magnify" viewBox="0 0 375 374.999991" height="500" preserveAspectRatio="xMidYMid meet" version="1.0"><defs><clipPath id="a23b36f832"><path d="M 36.171875 37.5 L 336.171875 37.5 L 336.171875 337.5 L 36.171875 337.5 Z M 36.171875 37.5 " clip-rule="nonzero"/></clipPath><clipPath id="7d580bf47c"><path d="M 56 37.5 L 336.171875 37.5 L 336.171875 316 L 56 316 Z M 56 37.5 " clip-rule="nonzero"/></clipPath></defs><g clip-path="url(#a23b36f832)"><path fill="#ec3655" d="M 336.1875 187.5 C 336.1875 270.347656 269.019531 337.515625 186.171875 337.515625 C 103.324219 337.515625 36.15625 270.347656 36.15625 187.5 C 36.15625 104.636719 103.324219 37.484375 186.171875 37.484375 C 269.019531 37.484375 336.1875 104.636719 336.1875 187.5 " fill-opacity="1" fill-rule="nonzero"/></g><path fill="#ffffff" d="M 294.832031 187.5 C 294.832031 247.515625 246.1875 296.160156 186.171875 296.160156 C 126.15625 296.160156 77.511719 247.515625 77.511719 187.5 C 77.511719 127.484375 126.15625 78.839844 186.171875 78.839844 C 246.1875 78.839844 294.832031 127.484375 294.832031 187.5 " fill-opacity="1" fill-rule="nonzero"/><path fill="#ec3655" d="M 257.117188 187.5 C 257.117188 226.695312 225.363281 258.449219 186.171875 258.449219 C 146.992188 258.449219 115.222656 226.695312 115.222656 187.5 C 115.222656 148.320312 146.992188 116.550781 186.171875 116.550781 C 225.363281 116.550781 257.117188 148.320312 257.117188 187.5 " fill-opacity="1" fill-rule="nonzero"/><path fill="#ffffff" d="M 222.476562 187.5 C 222.476562 207.550781 206.222656 223.804688 186.171875 223.804688 C 166.121094 223.804688 149.867188 207.550781 149.867188 187.5 C 149.867188 167.449219 166.121094 151.195312 186.171875 151.195312 C 206.222656 151.195312 222.476562 167.449219 222.476562 187.5 " fill-opacity="1" fill-rule="nonzero"/><path fill="#3abdc4" d="M 296.644531 75.621094 L 245.71875 126.5625 L 272.511719 136.996094 L 323.863281 85.660156 L 296.644531 75.621094 " fill-opacity="1" fill-rule="nonzero"/><path fill="#3abdc4" d="M 296.644531 75.621094 L 245.71875 126.5625 L 235.269531 99.769531 L 286.621094 48.417969 L 296.644531 75.621094 " fill-opacity="1" fill-rule="nonzero"/><path stroke-linecap="butt" transform="matrix(0.15121, 0, 0, -0.15121, -135.300719, 508.971759)" fill="none" stroke-linejoin="miter" d="M 2110.608799 2242.999113 L 2117.790466 2127.110777 L 2233.704635 2119.799944 " stroke="#51558f" stroke-width="60" stroke-opacity="1" stroke-miterlimit="10"/><g clip-path="url(#7d580bf47c)"><path stroke-linecap="butt" transform="matrix(0.15121, 0, 0, -0.15121, -135.300719, 508.971759)" fill="none" stroke-linejoin="miter" d="M 2913.405484 2922.596628 L 2117.790466 2127.110777 " stroke="#51558f" stroke-width="60" stroke-opacity="1" stroke-miterlimit="10"/></g></svg>