<svg xmlns="http://www.w3.org/2000/svg" xmlns:xlink="http://www.w3.org/1999/xlink" width="500" zoomAndPan="magnify" viewBox="0 0 375 374.999991" height="500" preserveAspectRatio="xMidYMid meet" version="1.0"><defs><clipPath id="16eaf44987"><path d="M 37.5 37.5 L 337.5 37.5 L 337.5 337.5 L 37.5 337.5 Z M 37.5 37.5 " clip-rule="nonzero"/></clipPath></defs><g clip-path="url(#16eaf44987)"><path fill="#2197bd" d="M 337.5 291.886719 C 337.5 317.0625 317.089844 337.472656 291.914062 337.472656 L 83.097656 337.472656 C 57.917969 337.472656 37.511719 317.0625 37.511719 291.886719 L 37.511719 83.066406 C 37.511719 57.890625 57.917969 37.480469 83.097656 37.480469 L 291.914062 37.480469 C 317.089844 37.480469 337.5 57.890625 337.5 83.066406 Z M 337.5 291.886719 " fill-opacity="1" fill-rule="nonzero"/></g><path fill="#ffffff" d="M 156.132812 144.507812 C 156.132812 145.242188 156.097656 145.976562 156.023438 146.707031 C 155.953125 147.4375 155.847656 148.160156 155.703125 148.882812 C 155.558594 149.601562 155.382812 150.3125 155.167969 151.015625 C 154.957031 151.71875 154.707031 152.40625 154.425781 153.085938 C 154.148438 153.761719 153.832031 154.425781 153.488281 155.074219 C 153.140625 155.722656 152.765625 156.351562 152.355469 156.960938 C 151.949219 157.570312 151.511719 158.160156 151.046875 158.726562 C 150.582031 159.292969 150.089844 159.835938 149.570312 160.355469 C 149.050781 160.875 148.507812 161.367188 147.941406 161.832031 C 147.371094 162.296875 146.785156 162.734375 146.171875 163.144531 C 145.5625 163.550781 144.933594 163.925781 144.289062 164.273438 C 143.640625 164.621094 142.976562 164.933594 142.300781 165.214844 C 141.621094 165.496094 140.929688 165.742188 140.226562 165.953125 C 139.527344 166.167969 138.816406 166.347656 138.09375 166.488281 C 137.375 166.632812 136.648438 166.738281 135.917969 166.8125 C 135.1875 166.882812 134.457031 166.917969 133.722656 166.917969 C 132.988281 166.917969 132.257812 166.882812 131.527344 166.8125 C 130.796875 166.738281 130.070312 166.632812 129.351562 166.488281 C 128.632812 166.347656 127.921875 166.167969 127.21875 165.953125 C 126.515625 165.742188 125.824219 165.496094 125.148438 165.214844 C 124.46875 164.933594 123.804688 164.621094 123.160156 164.273438 C 122.511719 163.925781 121.882812 163.550781 121.273438 163.144531 C 120.664062 162.734375 120.074219 162.296875 119.507812 161.832031 C 118.9375 161.367188 118.394531 160.875 117.875 160.355469 C 117.359375 159.835938 116.867188 159.292969 116.398438 158.726562 C 115.933594 158.160156 115.496094 157.570312 115.089844 156.960938 C 114.683594 156.351562 114.304688 155.722656 113.960938 155.074219 C 113.613281 154.425781 113.300781 153.761719 113.019531 153.085938 C 112.738281 152.40625 112.492188 151.71875 112.277344 151.015625 C 112.066406 150.3125 111.886719 149.601562 111.742188 148.882812 C 111.601562 148.160156 111.492188 147.4375 111.421875 146.707031 C 111.347656 145.976562 111.3125 145.242188 111.3125 144.507812 C 111.3125 143.777344 111.347656 143.042969 111.421875 142.3125 C 111.492188 141.582031 111.601562 140.855469 111.742188 140.136719 C 111.886719 139.417969 112.066406 138.707031 112.277344 138.003906 C 112.492188 137.300781 112.738281 136.613281 113.019531 135.933594 C 113.300781 135.253906 113.613281 134.59375 113.960938 133.945312 C 114.304688 133.296875 114.683594 132.667969 115.089844 132.058594 C 115.496094 131.449219 115.933594 130.859375 116.398438 130.292969 C 116.867188 129.726562 117.359375 129.183594 117.875 128.664062 C 118.394531 128.144531 118.9375 127.652344 119.507812 127.1875 C 120.074219 126.71875 120.664062 126.285156 121.273438 125.875 C 121.882812 125.46875 122.511719 125.089844 123.160156 124.746094 C 123.804688 124.398438 124.46875 124.085938 125.148438 123.804688 C 125.824219 123.523438 126.515625 123.277344 127.21875 123.0625 C 127.921875 122.851562 128.632812 122.671875 129.351562 122.53125 C 130.070312 122.386719 130.796875 122.277344 131.527344 122.207031 C 132.257812 122.136719 132.988281 122.097656 133.722656 122.097656 C 134.457031 122.097656 135.1875 122.136719 135.917969 122.207031 C 136.648438 122.277344 137.375 122.386719 138.09375 122.53125 C 138.816406 122.671875 139.527344 122.851562 140.226562 123.0625 C 140.929688 123.277344 141.621094 123.523438 142.300781 123.804688 C 142.976562 124.085938 143.640625 124.398438 144.289062 124.746094 C 144.933594 125.089844 145.5625 125.46875 146.171875 125.875 C 146.785156 126.285156 147.371094 126.71875 147.941406 127.1875 C 148.507812 127.652344 149.050781 128.144531 149.570312 128.664062 C 150.089844 129.183594 150.582031 129.726562 151.046875 130.292969 C 151.511719 130.859375 151.949219 131.449219 152.355469 132.058594 C 152.765625 132.667969 153.140625 133.296875 153.488281 133.945312 C 153.832031 134.59375 154.148438 135.253906 154.425781 135.933594 C 154.707031 136.613281 154.957031 137.300781 155.167969 138.003906 C 155.382812 138.707031 155.558594 139.417969 155.703125 140.136719 C 155.847656 140.855469 155.953125 141.582031 156.023438 142.3125 C 156.097656 143.042969 156.132812 143.777344 156.132812 144.507812 Z M 156.132812 144.507812 " fill-opacity="1" fill-rule="nonzero"/><path fill="#ffffff" d="M 114.402344 183.441406 L 152.902344 183.441406 L 152.902344 307.292969 L 114.402344 307.292969 Z M 114.402344 183.441406 " fill-opacity="1" fill-rule="nonzero"/><path fill="#ffffff" d="M 177.117188 183.441406 L 213.761719 183.441406 L 213.761719 307.292969 L 177.117188 307.292969 Z M 177.117188 183.441406 " fill-opacity="1" fill-rule="nonzero"/><path fill="#ffffff" d="M 178.703125 249.382812 L 215.34375 249.382812 L 215.34375 307.292969 L 178.703125 307.292969 Z M 178.703125 249.382812 " fill-opacity="1" fill-rule="nonzero"/><path fill="#ffffff" d="M 215.34375 249.382812 C 215.34375 249.382812 214.773438 233.320312 219.007812 224.96875 C 219.007812 224.96875 223.246094 214.679688 236.5625 214.621094 C 236.5625 214.621094 252.179688 211.894531 256.660156 227.390625 C 256.660156 227.390625 258.355469 235.984375 258.355469 239.617188 C 258.355469 243.25 258.476562 307.296875 258.476562 307.296875 L 296.855469 307.296875 L 296.855469 236.351562 C 296.855469 236.351562 299.640625 196.273438 275.585938 185.296875 C 275.585938 185.296875 236.035156 167.542969 214.570312 200.148438 C 214.570312 200.148438 209.886719 203.375 209.242188 194.335938 C 208.59375 185.296875 203.109375 208.21875 202.945312 208.707031 C 202.785156 209.1875 209.242188 254.386719 209.242188 254.386719 Z M 215.34375 249.382812 " fill-opacity="1" fill-rule="nonzero"/></svg>