<svg xmlns="http://www.w3.org/2000/svg" xmlns:xlink="http://www.w3.org/1999/xlink" width="500" zoomAndPan="magnify" viewBox="0 0 375 374.999991" height="500" preserveAspectRatio="xMidYMid meet" version="1.0"><defs><clipPath id="9c758d4e7c"><path d="M 37.5 37.5 L 337.5 37.5 L 337.5 337.5 L 37.5 337.5 Z M 37.5 37.5 " clip-rule="nonzero"/></clipPath><clipPath id="ee6bb409c3"><path d="M 37.5 71 L 304 71 L 304 337.5 L 37.5 337.5 Z M 37.5 71 " clip-rule="nonzero"/></clipPath></defs><g clip-path="url(#9c758d4e7c)"><path fill="#ffcd69" d="M 337.5 187.5 C 337.5 189.953125 337.441406 192.410156 337.320312 194.859375 C 337.199219 197.3125 337.019531 199.757812 336.777344 202.203125 C 336.535156 204.644531 336.238281 207.082031 335.875 209.507812 C 335.515625 211.9375 335.097656 214.355469 334.617188 216.761719 C 334.140625 219.171875 333.601562 221.566406 333.003906 223.945312 C 332.40625 226.328125 331.753906 228.695312 331.039062 231.042969 C 330.328125 233.390625 329.558594 235.722656 328.730469 238.035156 C 327.90625 240.34375 327.019531 242.632812 326.082031 244.902344 C 325.140625 247.171875 324.148438 249.414062 323.097656 251.632812 C 322.046875 253.851562 320.945312 256.042969 319.789062 258.210938 C 318.632812 260.375 317.421875 262.511719 316.160156 264.617188 C 314.898438 266.722656 313.585938 268.792969 312.21875 270.835938 C 310.855469 272.875 309.445312 274.882812 307.980469 276.855469 C 306.519531 278.828125 305.007812 280.761719 303.453125 282.660156 C 301.894531 284.554688 300.292969 286.414062 298.644531 288.234375 C 296.992188 290.054688 295.300781 291.832031 293.566406 293.566406 C 291.832031 295.300781 290.054688 296.992188 288.234375 298.644531 C 286.414062 300.292969 284.554688 301.894531 282.660156 303.453125 C 280.761719 305.007812 278.828125 306.519531 276.855469 307.980469 C 274.882812 309.445312 272.875 310.855469 270.835938 312.21875 C 268.792969 313.585938 266.722656 314.898438 264.617188 316.160156 C 262.511719 317.421875 260.375 318.632812 258.210938 319.789062 C 256.042969 320.945312 253.851562 322.046875 251.632812 323.097656 C 249.414062 324.148438 247.171875 325.140625 244.902344 326.082031 C 242.632812 327.019531 240.34375 327.90625 238.035156 328.730469 C 235.722656 329.558594 233.390625 330.328125 231.042969 331.042969 C 228.695312 331.753906 226.328125 332.40625 223.945312 333.003906 C 221.566406 333.601562 219.171875 334.140625 216.761719 334.617188 C 214.355469 335.097656 211.9375 335.515625 209.507812 335.875 C 207.082031 336.238281 204.644531 336.535156 202.203125 336.777344 C 199.757812 337.019531 197.3125 337.199219 194.859375 337.320312 C 192.410156 337.441406 189.953125 337.5 187.5 337.5 C 185.046875 337.5 182.589844 337.441406 180.140625 337.320312 C 177.6875 337.199219 175.242188 337.019531 172.796875 336.777344 C 170.355469 336.535156 167.917969 336.238281 165.492188 335.875 C 163.0625 335.515625 160.644531 335.097656 158.238281 334.617188 C 155.828125 334.140625 153.433594 333.601562 151.054688 333.003906 C 148.671875 332.40625 146.304688 331.753906 143.957031 331.039062 C 141.609375 330.328125 139.277344 329.558594 136.964844 328.730469 C 134.65625 327.90625 132.367188 327.019531 130.097656 326.082031 C 127.828125 325.140625 125.585938 324.148438 123.367188 323.097656 C 121.148438 322.046875 118.957031 320.945312 116.789062 319.789062 C 114.625 318.632812 112.488281 317.421875 110.382812 316.160156 C 108.277344 314.898438 106.207031 313.585938 104.164062 312.21875 C 102.125 310.855469 100.117188 309.445312 98.144531 307.980469 C 96.171875 306.519531 94.238281 305.007812 92.339844 303.453125 C 90.445312 301.894531 88.585938 300.292969 86.765625 298.644531 C 84.945312 296.992188 83.167969 295.300781 81.433594 293.566406 C 79.699219 291.832031 78.007812 290.054688 76.355469 288.234375 C 74.707031 286.414062 73.105469 284.554688 71.546875 282.660156 C 69.992188 280.761719 68.480469 278.828125 67.019531 276.855469 C 65.554688 274.882812 64.144531 272.875 62.78125 270.835938 C 61.414062 268.792969 60.101562 266.722656 58.839844 264.617188 C 57.578125 262.511719 56.367188 260.375 55.210938 258.210938 C 54.054688 256.042969 52.953125 253.851562 51.902344 251.632812 C 50.851562 249.414062 49.859375 247.171875 48.917969 244.902344 C 47.980469 242.632812 47.09375 240.34375 46.269531 238.035156 C 45.441406 235.722656 44.671875 233.390625 43.957031 231.042969 C 43.246094 228.695312 42.589844 226.328125 41.996094 223.945312 C 41.398438 221.566406 40.859375 219.171875 40.382812 216.761719 C 39.902344 214.355469 39.484375 211.9375 39.125 209.507812 C 38.761719 207.082031 38.464844 204.644531 38.222656 202.203125 C 37.980469 199.757812 37.800781 197.3125 37.679688 194.859375 C 37.558594 192.410156 37.5 189.953125 37.5 187.5 C 37.5 185.046875 37.558594 182.589844 37.679688 180.140625 C 37.800781 177.6875 37.980469 175.242188 38.222656 172.796875 C 38.464844 170.355469 38.761719 167.917969 39.125 165.492188 C 39.484375 163.0625 39.902344 160.644531 40.382812 158.238281 C 40.859375 155.828125 41.398438 153.433594 41.996094 151.054688 C 42.589844 148.671875 43.246094 146.304688 43.957031 143.957031 C 44.671875 141.609375 45.441406 139.277344 46.269531 136.964844 C 47.09375 134.65625 47.980469 132.367188 48.917969 130.097656 C 49.859375 127.828125 50.851562 125.585938 51.902344 123.367188 C 52.953125 121.148438 54.054688 118.957031 55.210938 116.789062 C 56.367188 114.625 57.578125 112.488281 58.839844 110.382812 C 60.101562 108.277344 61.414062 106.207031 62.78125 104.164062 C 64.144531 102.125 65.554688 100.117188 67.019531 98.144531 C 68.480469 96.171875 69.992188 94.238281 71.546875 92.339844 C 73.105469 90.445312 74.707031 88.585938 76.355469 86.765625 C 78.007812 84.945312 79.699219 83.167969 81.433594 81.433594 C 83.167969 79.699219 84.945312 78.007812 86.765625 76.355469 C 88.585938 74.707031 90.445312 73.105469 92.339844 71.546875 C 94.238281 69.992188 96.171875 68.480469 98.144531 67.019531 C 100.117188 65.554688 102.125 64.144531 104.164062 62.78125 C 106.207031 61.414062 108.277344 60.101562 110.382812 58.839844 C 112.488281 57.578125 114.625 56.367188 116.789062 55.210938 C 118.957031 54.054688 121.148438 52.953125 123.367188 51.902344 C 125.585938 50.851562 127.828125 49.859375 130.097656 48.917969 C 132.367188 47.980469 134.65625 47.09375 136.964844 46.269531 C 139.277344 45.441406 141.609375 44.671875 143.957031 43.957031 C 146.304688 43.246094 148.671875 42.589844 151.054688 41.996094 C 153.433594 41.398438 155.828125 40.859375 158.238281 40.382812 C 160.644531 39.902344 163.0625 39.484375 165.492188 39.125 C 167.917969 38.761719 170.355469 38.464844 172.796875 38.222656 C 175.242188 37.980469 177.6875 37.800781 180.140625 37.679688 C 182.589844 37.558594 185.046875 37.5 187.5 37.5 C 189.953125 37.5 192.410156 37.558594 194.859375 37.679688 C 197.3125 37.800781 199.757812 37.980469 202.203125 38.222656 C 204.644531 38.464844 207.082031 38.761719 209.507812 39.125 C 211.9375 39.484375 214.355469 39.902344 216.761719 40.382812 C 219.171875 40.859375 221.566406 41.398438 223.945312 41.996094 C 226.328125 42.589844 228.695312 43.246094 231.042969 43.957031 C 233.390625 44.671875 235.722656 45.441406 238.035156 46.269531 C 240.34375 47.09375 242.632812 47.980469 244.902344 48.917969 C 247.171875 49.859375 249.414062 50.851562 251.632812 51.902344 C 253.851562 52.953125 256.042969 54.054688 258.210938 55.210938 C 260.375 56.367188 262.511719 57.578125 264.617188 58.839844 C 266.722656 60.101562 268.792969 61.414062 270.835938 62.78125 C 272.875 64.144531 274.882812 65.554688 276.855469 67.019531 C 278.828125 68.480469 280.761719 69.992188 282.660156 71.546875 C 284.554688 73.105469 286.414062 74.707031 288.234375 76.355469 C 290.054688 78.007812 291.832031 79.699219 293.566406 81.433594 C 295.300781 83.167969 296.992188 84.945312 298.644531 86.765625 C 300.292969 88.585938 301.894531 90.445312 303.453125 92.339844 C 305.007812 94.238281 306.519531 96.171875 307.980469 98.144531 C 309.445312 100.117188 310.855469 102.125 312.21875 104.164062 C 313.585938 106.207031 314.898438 108.277344 316.160156 110.382812 C 317.421875 112.488281 318.632812 114.625 319.789062 116.789062 C 320.945312 118.957031 322.046875 121.148438 323.097656 123.367188 C 324.148438 125.585938 325.140625 127.828125 326.082031 130.097656 C 327.019531 132.367188 327.90625 134.65625 328.730469 136.964844 C 329.558594 139.277344 330.328125 141.609375 331.042969 143.957031 C 331.753906 146.304688 332.40625 148.671875 333.003906 151.054688 C 333.601562 153.433594 334.140625 155.828125 334.617188 158.238281 C 335.097656 160.644531 335.515625 163.0625 335.875 165.492188 C 336.238281 167.917969 336.535156 170.355469 336.777344 172.796875 C 337.019531 175.242188 337.199219 177.6875 337.320312 180.140625 C 337.441406 182.589844 337.5 185.046875 337.5 187.5 Z M 337.5 187.5 " fill-opacity="1" fill-rule="nonzero"/></g><g clip-path="url(#ee6bb409c3)"><path fill="#ffc144" d="M 207.496094 317.5 C 124.785156 317.5 57.5 250.207031 57.5 167.5 C 57.492188 163.179688 57.675781 158.867188 58.046875 154.5625 C 58.417969 150.257812 58.976562 145.976562 59.71875 141.722656 C 60.460938 137.464844 61.382812 133.246094 62.492188 129.070312 C 63.601562 124.894531 64.886719 120.773438 66.355469 116.710938 C 67.820312 112.644531 69.460938 108.652344 71.273438 104.730469 C 73.085938 100.808594 75.0625 96.972656 77.210938 93.222656 C 79.355469 89.472656 81.660156 85.820312 84.121094 82.269531 C 86.585938 78.71875 89.195312 75.28125 91.957031 71.957031 C 87.710938 75.460938 83.671875 79.1875 79.835938 83.132812 C 76 87.082031 72.394531 91.230469 69.015625 95.574219 C 65.640625 99.921875 62.511719 104.4375 59.632812 109.128906 C 56.753906 113.820312 54.140625 118.652344 51.792969 123.632812 C 49.445312 128.609375 47.378906 133.703125 45.59375 138.910156 C 43.808594 144.117188 42.316406 149.40625 41.113281 154.777344 C 39.914062 160.148438 39.007812 165.566406 38.40625 171.039062 C 37.800781 176.507812 37.5 181.996094 37.5 187.5 C 37.5 270.210938 104.785156 337.5 187.5 337.5 C 193.003906 337.5 198.492188 337.199219 203.960938 336.59375 C 209.433594 335.992188 214.855469 335.089844 220.226562 333.886719 C 225.597656 332.683594 230.886719 331.191406 236.09375 329.40625 C 241.296875 327.621094 246.390625 325.554688 251.371094 323.207031 C 256.347656 320.859375 261.183594 318.246094 265.875 315.367188 C 270.5625 312.488281 275.082031 309.359375 279.425781 305.980469 C 283.773438 302.601562 287.917969 298.996094 291.867188 295.160156 C 295.8125 291.324219 299.539062 287.285156 303.039062 283.035156 C 299.71875 285.796875 296.28125 288.410156 292.730469 290.875 C 289.179688 293.335938 285.53125 295.640625 281.78125 297.785156 C 278.027344 299.933594 274.191406 301.914062 270.269531 303.726562 C 266.347656 305.539062 262.355469 307.175781 258.289062 308.644531 C 254.226562 310.109375 250.105469 311.398438 245.929688 312.503906 C 241.753906 313.613281 237.535156 314.539062 233.28125 315.28125 C 229.023438 316.023438 224.742188 316.582031 220.4375 316.953125 C 216.132812 317.320312 211.820312 317.503906 207.496094 317.5 Z M 207.496094 317.5 " fill-opacity="1" fill-rule="nonzero"/></g><path fill="#faf7f5" d="M 137.503906 187.5 C 137.503906 188.484375 137.453125 189.460938 137.359375 190.441406 C 137.261719 191.417969 137.117188 192.390625 136.925781 193.351562 C 136.734375 194.316406 136.496094 195.269531 136.210938 196.207031 C 135.925781 197.148438 135.59375 198.074219 135.21875 198.980469 C 134.84375 199.886719 134.421875 200.773438 133.960938 201.640625 C 133.496094 202.507812 132.992188 203.351562 132.445312 204.167969 C 131.898438 204.984375 131.316406 205.773438 130.691406 206.53125 C 130.070312 207.292969 129.410156 208.019531 128.714844 208.714844 C 128.019531 209.40625 127.292969 210.066406 126.535156 210.691406 C 125.773438 211.3125 124.984375 211.898438 124.167969 212.445312 C 123.351562 212.988281 122.511719 213.496094 121.644531 213.957031 C 120.777344 214.421875 119.890625 214.839844 118.984375 215.214844 C 118.074219 215.59375 117.152344 215.921875 116.210938 216.207031 C 115.269531 216.492188 114.316406 216.730469 113.355469 216.921875 C 112.390625 217.117188 111.421875 217.257812 110.441406 217.355469 C 109.464844 217.453125 108.484375 217.5 107.503906 217.5 C 106.519531 217.5 105.539062 217.453125 104.5625 217.355469 C 103.582031 217.257812 102.613281 217.117188 101.648438 216.921875 C 100.6875 216.730469 99.734375 216.492188 98.792969 216.207031 C 97.851562 215.921875 96.929688 215.59375 96.019531 215.214844 C 95.113281 214.839844 94.226562 214.421875 93.359375 213.957031 C 92.492188 213.496094 91.652344 212.988281 90.835938 212.445312 C 90.019531 211.898438 89.230469 211.3125 88.46875 210.691406 C 87.710938 210.066406 86.984375 209.40625 86.289062 208.714844 C 85.59375 208.019531 84.933594 207.292969 84.3125 206.53125 C 83.6875 205.773438 83.105469 204.984375 82.558594 204.167969 C 82.011719 203.351562 81.507812 202.507812 81.042969 201.640625 C 80.582031 200.773438 80.160156 199.886719 79.785156 198.980469 C 79.410156 198.074219 79.078125 197.148438 78.792969 196.207031 C 78.507812 195.269531 78.269531 194.316406 78.078125 193.351562 C 77.886719 192.390625 77.742188 191.417969 77.644531 190.441406 C 77.550781 189.460938 77.503906 188.484375 77.503906 187.5 C 77.503906 186.515625 77.550781 185.539062 77.644531 184.558594 C 77.742188 183.582031 77.886719 182.609375 78.078125 181.648438 C 78.269531 180.683594 78.507812 179.730469 78.792969 178.792969 C 79.078125 177.851562 79.410156 176.925781 79.785156 176.019531 C 80.160156 175.113281 80.582031 174.226562 81.042969 173.359375 C 81.507812 172.492188 82.011719 171.648438 82.558594 170.832031 C 83.105469 170.015625 83.6875 169.226562 84.3125 168.46875 C 84.933594 167.707031 85.59375 166.980469 86.289062 166.285156 C 86.984375 165.59375 87.710938 164.933594 88.46875 164.308594 C 89.230469 163.6875 90.019531 163.101562 90.835938 162.554688 C 91.652344 162.011719 92.492188 161.503906 93.359375 161.042969 C 94.226562 160.578125 95.113281 160.160156 96.019531 159.785156 C 96.929688 159.40625 97.851562 159.078125 98.792969 158.792969 C 99.734375 158.507812 100.6875 158.269531 101.648438 158.078125 C 102.613281 157.882812 103.582031 157.742188 104.5625 157.644531 C 105.539062 157.546875 106.519531 157.5 107.503906 157.5 C 108.484375 157.5 109.464844 157.546875 110.441406 157.644531 C 111.421875 157.742188 112.390625 157.882812 113.355469 158.078125 C 114.316406 158.269531 115.269531 158.507812 116.210938 158.792969 C 117.152344 159.078125 118.074219 159.40625 118.984375 159.785156 C 119.890625 160.160156 120.777344 160.578125 121.644531 161.042969 C 122.511719 161.503906 123.351562 162.011719 124.167969 162.554688 C 124.984375 163.101562 125.773438 163.6875 126.535156 164.308594 C 127.292969 164.933594 128.019531 165.59375 128.714844 166.285156 C 129.410156 166.980469 130.070312 167.707031 130.691406 168.46875 C 131.316406 169.226562 131.898438 170.015625 132.445312 170.832031 C 132.992188 171.648438 133.496094 172.492188 133.960938 173.359375 C 134.421875 174.222656 134.84375 175.113281 135.21875 176.019531 C 135.59375 176.925781 135.925781 177.851562 136.210938 178.792969 C 136.496094 179.730469 136.734375 180.683594 136.925781 181.648438 C 137.117188 182.609375 137.261719 183.582031 137.359375 184.558594 C 137.453125 185.539062 137.503906 186.515625 137.503906 187.5 Z M 137.503906 187.5 " fill-opacity="1" fill-rule="nonzero"/><path fill="#faf7f5" d="M 297.496094 187.5 C 297.496094 188.484375 297.449219 189.460938 297.355469 190.441406 C 297.257812 191.417969 297.113281 192.390625 296.921875 193.351562 C 296.730469 194.316406 296.492188 195.269531 296.207031 196.207031 C 295.921875 197.148438 295.589844 198.074219 295.214844 198.980469 C 294.839844 199.886719 294.417969 200.773438 293.957031 201.640625 C 293.492188 202.507812 292.988281 203.351562 292.441406 204.167969 C 291.894531 204.984375 291.3125 205.773438 290.6875 206.53125 C 290.066406 207.292969 289.40625 208.019531 288.710938 208.714844 C 288.015625 209.40625 287.289062 210.066406 286.53125 210.691406 C 285.769531 211.3125 284.980469 211.898438 284.164062 212.445312 C 283.347656 212.988281 282.507812 213.496094 281.640625 213.957031 C 280.773438 214.421875 279.886719 214.839844 278.976562 215.214844 C 278.070312 215.59375 277.148438 215.921875 276.207031 216.207031 C 275.265625 216.492188 274.3125 216.730469 273.351562 216.921875 C 272.386719 217.117188 271.417969 217.257812 270.4375 217.355469 C 269.460938 217.453125 268.480469 217.5 267.496094 217.5 C 266.515625 217.5 265.535156 217.453125 264.558594 217.355469 C 263.578125 217.257812 262.609375 217.117188 261.644531 216.921875 C 260.683594 216.730469 259.730469 216.492188 258.789062 216.207031 C 257.847656 215.921875 256.925781 215.59375 256.015625 215.214844 C 255.109375 214.839844 254.222656 214.421875 253.355469 213.957031 C 252.488281 213.496094 251.648438 212.988281 250.832031 212.445312 C 250.015625 211.898438 249.226562 211.3125 248.464844 210.691406 C 247.707031 210.066406 246.980469 209.40625 246.285156 208.714844 C 245.589844 208.019531 244.929688 207.292969 244.308594 206.53125 C 243.683594 205.773438 243.101562 204.984375 242.554688 204.167969 C 242.007812 203.351562 241.503906 202.507812 241.039062 201.640625 C 240.578125 200.773438 240.15625 199.886719 239.78125 198.980469 C 239.40625 198.074219 239.074219 197.148438 238.789062 196.207031 C 238.503906 195.269531 238.265625 194.316406 238.074219 193.351562 C 237.882812 192.390625 237.738281 191.417969 237.640625 190.441406 C 237.546875 189.460938 237.496094 188.484375 237.496094 187.5 C 237.496094 186.515625 237.546875 185.539062 237.640625 184.558594 C 237.738281 183.582031 237.882812 182.609375 238.074219 181.648438 C 238.265625 180.683594 238.503906 179.730469 238.789062 178.792969 C 239.074219 177.851562 239.40625 176.925781 239.78125 176.019531 C 240.15625 175.113281 240.578125 174.226562 241.039062 173.359375 C 241.503906 172.492188 242.007812 171.648438 242.554688 170.832031 C 243.101562 170.015625 243.683594 169.226562 244.308594 168.46875 C 244.929688 167.707031 245.589844 166.980469 246.285156 166.285156 C 246.980469 165.59375 247.707031 164.933594 248.464844 164.308594 C 249.226562 163.6875 250.015625 163.101562 250.832031 162.554688 C 251.648438 162.011719 252.488281 161.503906 253.355469 161.042969 C 254.222656 160.578125 255.109375 160.160156 256.015625 159.785156 C 256.925781 159.40625 257.847656 159.078125 258.789062 158.792969 C 259.730469 158.507812 260.683594 158.269531 261.644531 158.078125 C 262.609375 157.882812 263.578125 157.742188 264.558594 157.644531 C 265.535156 157.546875 266.515625 157.5 267.496094 157.5 C 268.480469 157.5 269.460938 157.546875 270.4375 157.644531 C 271.417969 157.742188 272.386719 157.882812 273.351562 158.078125 C 274.3125 158.269531 275.265625 158.507812 276.207031 158.792969 C 277.148438 159.078125 278.070312 159.40625 278.976562 159.785156 C 279.886719 160.160156 280.773438 160.578125 281.640625 161.042969 C 282.507812 161.503906 283.347656 162.011719 284.164062 162.554688 C 284.980469 163.101562 285.769531 163.6875 286.53125 164.308594 C 287.289062 164.933594 288.015625 165.59375 288.710938 166.285156 C 289.40625 166.980469 290.066406 167.707031 290.6875 168.46875 C 291.3125 169.226562 291.894531 170.015625 292.441406 170.832031 C 292.988281 171.648438 293.492188 172.492188 293.957031 173.359375 C 294.417969 174.222656 294.839844 175.113281 295.214844 176.019531 C 295.589844 176.925781 295.921875 177.851562 296.207031 178.792969 C 296.492188 179.730469 296.730469 180.683594 296.921875 181.648438 C 297.113281 182.609375 297.257812 183.582031 297.355469 184.558594 C 297.449219 185.539062 297.496094 186.515625 297.496094 187.5 Z M 297.496094 187.5 " fill-opacity="1" fill-rule="nonzero"/><path fill="#faf7f5" d="M 217.5 187.5 C 217.5 188.484375 217.453125 189.460938 217.355469 190.441406 C 217.257812 191.417969 217.117188 192.390625 216.921875 193.351562 C 216.730469 194.316406 216.492188 195.269531 216.207031 196.207031 C 215.921875 197.148438 215.59375 198.074219 215.214844 198.980469 C 214.839844 199.886719 214.421875 200.773438 213.957031 201.640625 C 213.496094 202.507812 212.988281 203.351562 212.445312 204.167969 C 211.898438 204.984375 211.3125 205.773438 210.691406 206.53125 C 210.066406 207.292969 209.40625 208.019531 208.714844 208.714844 C 208.019531 209.40625 207.292969 210.066406 206.53125 210.691406 C 205.773438 211.3125 204.984375 211.898438 204.167969 212.445312 C 203.351562 212.988281 202.507812 213.496094 201.640625 213.957031 C 200.773438 214.421875 199.886719 214.839844 198.980469 215.214844 C 198.074219 215.59375 197.148438 215.921875 196.207031 216.207031 C 195.269531 216.492188 194.316406 216.730469 193.351562 216.921875 C 192.390625 217.117188 191.417969 217.257812 190.441406 217.355469 C 189.460938 217.453125 188.484375 217.5 187.5 217.5 C 186.515625 217.5 185.539062 217.453125 184.558594 217.355469 C 183.582031 217.257812 182.609375 217.117188 181.648438 216.921875 C 180.683594 216.730469 179.730469 216.492188 178.792969 216.207031 C 177.851562 215.921875 176.925781 215.59375 176.019531 215.214844 C 175.113281 214.839844 174.226562 214.421875 173.359375 213.957031 C 172.492188 213.496094 171.648438 212.988281 170.832031 212.445312 C 170.015625 211.898438 169.226562 211.3125 168.46875 210.691406 C 167.707031 210.066406 166.980469 209.40625 166.285156 208.714844 C 165.59375 208.019531 164.933594 207.292969 164.308594 206.53125 C 163.6875 205.773438 163.101562 204.984375 162.554688 204.167969 C 162.011719 203.351562 161.503906 202.507812 161.042969 201.640625 C 160.578125 200.773438 160.160156 199.886719 159.785156 198.980469 C 159.40625 198.074219 159.078125 197.148438 158.792969 196.207031 C 158.507812 195.269531 158.269531 194.316406 158.078125 193.351562 C 157.882812 192.390625 157.742188 191.417969 157.644531 190.441406 C 157.546875 189.460938 157.5 188.484375 157.5 187.5 C 157.5 186.515625 157.546875 185.539062 157.644531 184.558594 C 157.742188 183.582031 157.882812 182.609375 158.078125 181.648438 C 158.269531 180.683594 158.507812 179.730469 158.792969 178.792969 C 159.078125 177.851562 159.40625 176.925781 159.785156 176.019531 C 160.160156 175.113281 160.578125 174.226562 161.042969 173.359375 C 161.503906 172.492188 162.011719 171.648438 162.554688 170.832031 C 163.101562 170.015625 163.6875 169.226562 164.308594 168.46875 C 164.933594 167.707031 165.59375 166.980469 166.285156 166.285156 C 166.980469 165.59375 167.707031 164.933594 168.46875 164.308594 C 169.226562 163.6875 170.015625 163.101562 170.832031 162.554688 C 171.648438 162.011719 172.492188 161.503906 173.359375 161.042969 C 174.222656 160.578125 175.113281 160.160156 176.019531 159.785156 C 176.925781 159.40625 177.851562 159.078125 178.792969 158.792969 C 179.730469 158.507812 180.683594 158.269531 181.648438 158.078125 C 182.609375 157.882812 183.582031 157.742188 184.558594 157.644531 C 185.539062 157.546875 186.515625 157.5 187.5 157.5 C 188.484375 157.5 189.460938 157.546875 190.441406 157.644531 C 191.417969 157.742188 192.390625 157.882812 193.351562 158.078125 C 194.316406 158.269531 195.269531 158.507812 196.207031 158.792969 C 197.148438 159.078125 198.074219 159.40625 198.980469 159.785156 C 199.886719 160.160156 200.773438 160.578125 201.640625 161.042969 C 202.507812 161.503906 203.351562 162.011719 204.167969 162.554688 C 204.984375 163.101562 205.773438 163.6875 206.53125 164.308594 C 207.292969 164.933594 208.019531 165.59375 208.714844 166.285156 C 209.40625 166.980469 210.066406 167.707031 210.691406 168.46875 C 211.3125 169.226562 211.898438 170.015625 212.445312 170.832031 C 212.988281 171.648438 213.496094 172.492188 213.957031 173.359375 C 214.421875 174.222656 214.839844 175.113281 215.214844 176.019531 C 215.59375 176.925781 215.921875 177.851562 216.207031 178.792969 C 216.492188 179.730469 216.730469 180.683594 216.921875 181.648438 C 217.117188 182.609375 217.257812 183.582031 217.355469 184.558594 C 217.453125 185.539062 217.5 186.515625 217.5 187.5 Z M 217.5 187.5 " fill-opacity="1" fill-rule="nonzero"/><path fill="#f0e5e1" d="M 133.101562 171.902344 C 130.757812 170.457031 128.257812 169.359375 125.609375 168.609375 C 122.957031 167.863281 120.253906 167.492188 117.496094 167.5 C 116.515625 167.5 115.535156 167.546875 114.554688 167.644531 C 113.578125 167.738281 112.605469 167.878906 111.640625 168.070312 C 110.679688 168.261719 109.726562 168.5 108.785156 168.785156 C 107.84375 169.070312 106.917969 169.398438 106.011719 169.773438 C 105.101562 170.148438 104.214844 170.570312 103.347656 171.03125 C 102.480469 171.496094 101.636719 172 100.820312 172.546875 C 100.003906 173.089844 99.214844 173.675781 98.457031 174.300781 C 97.695312 174.921875 96.96875 175.582031 96.273438 176.277344 C 95.578125 176.972656 94.917969 177.699219 94.296875 178.460938 C 93.671875 179.21875 93.085938 180.007812 92.542969 180.824219 C 91.996094 181.640625 91.492188 182.484375 91.027344 183.351562 C 90.566406 184.21875 90.144531 185.105469 89.769531 186.015625 C 89.394531 186.921875 89.066406 187.847656 88.78125 188.789062 C 88.496094 189.730469 88.257812 190.683594 88.066406 191.644531 C 87.875 192.609375 87.734375 193.582031 87.640625 194.558594 C 87.542969 195.539062 87.496094 196.519531 87.5 197.5 C 87.492188 200.253906 87.859375 202.957031 88.609375 205.609375 C 89.355469 208.257812 90.453125 210.753906 91.898438 213.097656 C 90.800781 212.441406 89.746094 211.710938 88.742188 210.917969 C 87.738281 210.121094 86.785156 209.261719 85.894531 208.34375 C 85 207.425781 84.167969 206.453125 83.402344 205.425781 C 82.632812 204.398438 81.933594 203.324219 81.308594 202.207031 C 80.679688 201.089844 80.125 199.9375 79.644531 198.746094 C 79.167969 197.558594 78.765625 196.34375 78.445312 195.101562 C 78.125 193.859375 77.886719 192.605469 77.726562 191.332031 C 77.570312 190.058594 77.496094 188.78125 77.5 187.5 C 77.5 186.515625 77.546875 185.535156 77.644531 184.558594 C 77.738281 183.578125 77.878906 182.609375 78.070312 181.644531 C 78.261719 180.679688 78.5 179.726562 78.785156 178.785156 C 79.070312 177.847656 79.398438 176.921875 79.773438 176.011719 C 80.148438 175.105469 80.570312 174.21875 81.03125 173.351562 C 81.496094 172.484375 82 171.640625 82.546875 170.824219 C 83.089844 170.003906 83.675781 169.21875 84.300781 168.457031 C 84.921875 167.695312 85.582031 166.96875 86.277344 166.273438 C 86.972656 165.578125 87.699219 164.921875 88.460938 164.296875 C 89.21875 163.671875 90.007812 163.089844 90.824219 162.542969 C 91.640625 161.996094 92.484375 161.492188 93.351562 161.03125 C 94.21875 160.566406 95.105469 160.148438 96.015625 159.773438 C 96.921875 159.398438 97.847656 159.066406 98.789062 158.78125 C 99.730469 158.496094 100.683594 158.261719 101.644531 158.070312 C 102.609375 157.878906 103.582031 157.734375 104.558594 157.640625 C 105.539062 157.546875 106.519531 157.5 107.5 157.5 C 108.785156 157.492188 110.0625 157.566406 111.332031 157.726562 C 112.605469 157.886719 113.863281 158.125 115.105469 158.445312 C 116.34375 158.769531 117.5625 159.167969 118.75 159.648438 C 119.9375 160.125 121.09375 160.679688 122.210938 161.308594 C 123.328125 161.9375 124.398438 162.636719 125.425781 163.402344 C 126.453125 164.171875 127.425781 165.003906 128.347656 165.894531 C 129.265625 166.789062 130.121094 167.738281 130.917969 168.746094 C 131.714844 169.75 132.441406 170.800781 133.101562 171.902344 Z M 133.101562 171.902344 " fill-opacity="1" fill-rule="nonzero"/><path fill="#f0e5e1" d="M 293.097656 171.902344 C 290.753906 170.457031 288.257812 169.359375 285.605469 168.609375 C 282.957031 167.863281 280.253906 167.492188 277.5 167.5 C 276.515625 167.5 275.535156 167.546875 274.558594 167.644531 C 273.578125 167.738281 272.609375 167.878906 271.644531 168.070312 C 270.679688 168.261719 269.726562 168.5 268.785156 168.785156 C 267.847656 169.070312 266.921875 169.398438 266.011719 169.773438 C 265.105469 170.148438 264.21875 170.570312 263.351562 171.03125 C 262.484375 171.496094 261.640625 172 260.824219 172.546875 C 260.003906 173.089844 259.21875 173.675781 258.457031 174.300781 C 257.695312 174.921875 256.96875 175.582031 256.273438 176.277344 C 255.578125 176.972656 254.921875 177.699219 254.296875 178.460938 C 253.671875 179.21875 253.089844 180.007812 252.542969 180.824219 C 251.996094 181.640625 251.492188 182.484375 251.03125 183.351562 C 250.566406 184.21875 250.148438 185.105469 249.773438 186.015625 C 249.398438 186.921875 249.066406 187.847656 248.78125 188.789062 C 248.496094 189.730469 248.261719 190.683594 248.070312 191.644531 C 247.878906 192.609375 247.734375 193.582031 247.640625 194.558594 C 247.546875 195.539062 247.5 196.519531 247.5 197.5 C 247.492188 200.253906 247.863281 202.957031 248.609375 205.609375 C 249.359375 208.257812 250.453125 210.757812 251.898438 213.097656 C 250.800781 212.441406 249.75 211.710938 248.742188 210.917969 C 247.738281 210.121094 246.789062 209.261719 245.894531 208.34375 C 245 207.425781 244.167969 206.453125 243.402344 205.425781 C 242.632812 204.398438 241.933594 203.324219 241.304688 202.207031 C 240.675781 201.089844 240.125 199.9375 239.644531 198.75 C 239.164062 197.558594 238.765625 196.34375 238.445312 195.101562 C 238.121094 193.859375 237.882812 192.605469 237.722656 191.332031 C 237.566406 190.058594 237.492188 188.78125 237.496094 187.5 C 237.496094 186.515625 237.542969 185.535156 237.640625 184.558594 C 237.734375 183.578125 237.875 182.609375 238.066406 181.644531 C 238.257812 180.679688 238.496094 179.726562 238.78125 178.785156 C 239.066406 177.847656 239.394531 176.921875 239.769531 176.011719 C 240.144531 175.105469 240.566406 174.21875 241.027344 173.351562 C 241.492188 172.484375 241.996094 171.640625 242.542969 170.824219 C 243.085938 170.003906 243.671875 169.21875 244.296875 168.457031 C 244.917969 167.695312 245.578125 166.96875 246.273438 166.273438 C 246.96875 165.578125 247.695312 164.921875 248.457031 164.296875 C 249.214844 163.671875 250.003906 163.089844 250.820312 162.542969 C 251.636719 161.996094 252.480469 161.492188 253.347656 161.03125 C 254.214844 160.566406 255.101562 160.148438 256.011719 159.773438 C 256.917969 159.398438 257.84375 159.066406 258.785156 158.78125 C 259.726562 158.496094 260.679688 158.261719 261.640625 158.070312 C 262.605469 157.878906 263.578125 157.734375 264.554688 157.640625 C 265.535156 157.546875 266.515625 157.5 267.496094 157.5 C 268.78125 157.492188 270.058594 157.566406 271.328125 157.726562 C 272.601562 157.882812 273.859375 158.125 275.101562 158.445312 C 276.34375 158.765625 277.558594 159.167969 278.746094 159.644531 C 279.9375 160.125 281.089844 160.679688 282.207031 161.308594 C 283.324219 161.9375 284.398438 162.632812 285.425781 163.402344 C 286.449219 164.171875 287.421875 165 288.34375 165.894531 C 289.261719 166.789062 290.121094 167.738281 290.914062 168.746094 C 291.710938 169.75 292.4375 170.800781 293.097656 171.902344 Z M 293.097656 171.902344 " fill-opacity="1" fill-rule="nonzero"/><path fill="#f0e5e1" d="M 213.097656 171.902344 C 210.753906 170.457031 208.257812 169.359375 205.609375 168.613281 C 202.957031 167.863281 200.253906 167.496094 197.503906 167.5 C 196.519531 167.5 195.539062 167.546875 194.558594 167.644531 C 193.582031 167.738281 192.609375 167.878906 191.644531 168.070312 C 190.683594 168.261719 189.730469 168.5 188.789062 168.785156 C 187.847656 169.070312 186.921875 169.398438 186.015625 169.773438 C 185.105469 170.148438 184.21875 170.570312 183.351562 171.03125 C 182.484375 171.496094 181.640625 172 180.824219 172.546875 C 180.007812 173.089844 179.21875 173.675781 178.460938 174.300781 C 177.699219 174.921875 176.972656 175.582031 176.277344 176.277344 C 175.582031 176.972656 174.921875 177.699219 174.300781 178.460938 C 173.675781 179.21875 173.089844 180.007812 172.546875 180.824219 C 172 181.640625 171.496094 182.484375 171.03125 183.351562 C 170.570312 184.21875 170.148438 185.105469 169.773438 186.015625 C 169.398438 186.921875 169.070312 187.847656 168.785156 188.789062 C 168.5 189.730469 168.261719 190.683594 168.070312 191.644531 C 167.878906 192.609375 167.738281 193.582031 167.644531 194.558594 C 167.546875 195.539062 167.5 196.519531 167.503906 197.5 C 167.496094 200.253906 167.863281 202.957031 168.613281 205.609375 C 169.359375 208.257812 170.457031 210.753906 171.902344 213.097656 C 170.800781 212.441406 169.75 211.710938 168.746094 210.917969 C 167.738281 210.121094 166.789062 209.261719 165.894531 208.34375 C 165 207.425781 164.171875 206.453125 163.402344 205.425781 C 162.636719 204.398438 161.9375 203.324219 161.308594 202.207031 C 160.679688 201.089844 160.125 199.9375 159.648438 198.75 C 159.167969 197.558594 158.765625 196.34375 158.445312 195.101562 C 158.125 193.859375 157.882812 192.605469 157.726562 191.332031 C 157.566406 190.058594 157.492188 188.78125 157.5 187.5 C 157.5 186.515625 157.546875 185.535156 157.640625 184.558594 C 157.734375 183.578125 157.878906 182.609375 158.070312 181.644531 C 158.261719 180.679688 158.496094 179.726562 158.78125 178.785156 C 159.066406 177.847656 159.398438 176.921875 159.773438 176.011719 C 160.148438 175.105469 160.566406 174.21875 161.03125 173.351562 C 161.492188 172.484375 161.996094 171.640625 162.542969 170.824219 C 163.089844 170.003906 163.671875 169.21875 164.296875 168.457031 C 164.921875 167.695312 165.578125 166.96875 166.273438 166.273438 C 166.96875 165.578125 167.695312 164.921875 168.457031 164.296875 C 169.21875 163.671875 170.003906 163.089844 170.824219 162.542969 C 171.640625 161.996094 172.484375 161.492188 173.351562 161.03125 C 174.21875 160.566406 175.105469 160.148438 176.011719 159.773438 C 176.921875 159.398438 177.847656 159.066406 178.785156 158.78125 C 179.726562 158.496094 180.679688 158.261719 181.644531 158.070312 C 182.609375 157.878906 183.578125 157.734375 184.558594 157.640625 C 185.535156 157.546875 186.515625 157.5 187.5 157.5 C 188.78125 157.492188 190.058594 157.566406 191.332031 157.726562 C 192.605469 157.882812 193.859375 158.125 195.101562 158.445312 C 196.34375 158.765625 197.558594 159.167969 198.75 159.648438 C 199.9375 160.125 201.089844 160.679688 202.207031 161.308594 C 203.328125 161.9375 204.398438 162.636719 205.425781 163.402344 C 206.453125 164.171875 207.425781 165 208.34375 165.894531 C 209.261719 166.789062 210.121094 167.738281 210.917969 168.746094 C 211.710938 169.75 212.441406 170.800781 213.097656 171.902344 Z M 213.097656 171.902344 " fill-opacity="1" fill-rule="nonzero"/></svg>