<svg xmlns="http://www.w3.org/2000/svg" xmlns:xlink="http://www.w3.org/1999/xlink" width="500" zoomAndPan="magnify" viewBox="0 0 375 374.999991" height="500" preserveAspectRatio="xMidYMid meet" version="1.0"><defs><clipPath id="e1fe8975fd"><path d="M 37.5 37.6875 L 337.5 37.6875 L 337.5 337.6875 L 37.5 337.6875 Z M 37.5 37.6875 " clip-rule="nonzero"/></clipPath></defs><g clip-path="url(#e1fe8975fd)"><path fill="#43a047" d="M 337.34375 187.703125 C 337.34375 146.277344 320.574219 108.773438 293.464844 81.625 C 266.347656 54.476562 228.890625 37.6875 187.515625 37.6875 C 146.140625 37.6875 108.683594 54.476562 81.570312 81.625 C 54.460938 108.773438 37.6875 146.277344 37.6875 187.703125 C 37.6875 229.128906 54.460938 266.636719 81.570312 293.78125 C 108.683594 320.925781 146.140625 337.71875 187.515625 337.71875 C 228.890625 337.71875 266.347656 320.925781 293.464844 293.78125 C 320.574219 266.636719 337.34375 229.128906 337.34375 187.703125 " fill-opacity="1" fill-rule="evenodd"/></g><path fill="#ffffff" d="M 164.726562 287.433594 L 214.484375 287.433594 L 214.484375 214.707031 L 287.121094 214.707031 L 287.121094 160.699219 L 214.484375 160.699219 L 214.484375 87.96875 L 160.546875 87.96875 L 160.546875 160.699219 L 87.90625 160.699219 L 87.90625 214.707031 L 160.546875 214.707031 L 160.546875 287.433594 L 164.726562 287.433594 " fill-opacity="1" fill-rule="evenodd"/></svg>