<svg xmlns="http://www.w3.org/2000/svg" xmlns:xlink="http://www.w3.org/1999/xlink" width="500" zoomAndPan="magnify" viewBox="0 0 375 374.999991" height="500" preserveAspectRatio="xMidYMid meet" version="1.0"><defs><clipPath id="13f0b2a004"><path d="M 37.5 87.5625 L 337.5 87.5625 L 337.5 287.8125 L 37.5 287.8125 Z M 37.5 87.5625 " clip-rule="nonzero"/></clipPath><clipPath id="93743e1e11"><path d="M 37.5 137 L 337.5 137 L 337.5 238 L 37.5 238 Z M 37.5 137 " clip-rule="nonzero"/></clipPath></defs><g clip-path="url(#13f0b2a004)"><path fill="#e94b35" d="M 37.59375 125.109375 C 37.59375 104.378906 54.347656 87.5625 75.101562 87.5625 L 299.898438 87.5625 C 320.621094 87.5625 337.40625 104.378906 337.40625 125.109375 L 337.40625 250.265625 C 337.40625 270.996094 320.652344 287.8125 299.898438 287.8125 L 75.101562 287.8125 C 54.378906 287.8125 37.59375 270.996094 37.59375 250.265625 Z M 37.59375 125.109375 " fill-opacity="1" fill-rule="evenodd"/></g><g clip-path="url(#93743e1e11)"><path fill="#f2c500" d="M 37.59375 237.75 L 337.40625 237.75 L 337.40625 137.625 L 37.59375 137.625 Z M 37.59375 237.75 " fill-opacity="1" fill-rule="nonzero"/></g><path fill="#d9d9d9" d="M 81.316406 165.785156 L 81.316406 225.234375 L 84.441406 225.234375 L 84.441406 231.492188 L 65.703125 231.492188 L 65.703125 225.234375 L 68.824219 225.234375 L 68.824219 165.785156 Z M 81.316406 165.785156 " fill-opacity="1" fill-rule="evenodd"/><path fill="#e94b35" d="M 81.316406 165.785156 C 81.316406 169.238281 78.519531 172.042969 75.070312 172.042969 C 71.621094 172.042969 68.824219 169.238281 68.824219 165.785156 C 68.824219 162.332031 71.621094 159.527344 75.070312 159.527344 C 78.519531 159.527344 81.316406 162.332031 81.316406 165.785156 Z M 81.316406 165.785156 " fill-opacity="1" fill-rule="evenodd"/><path fill="#d9d9d9" d="M 87.300781 165.230469 L 150.285156 165.230469 L 150.285156 209.785156 C 150.285156 225.167969 136.199219 232.046875 118.792969 232.046875 C 101.386719 232.046875 87.300781 225.167969 87.300781 209.785156 Z M 87.300781 165.230469 " fill-opacity="1" fill-rule="evenodd"/><path fill="#e94b35" d="M 90.164062 167.804688 L 118.792969 167.804688 L 118.792969 193.488281 L 90.164062 193.488281 Z M 90.164062 167.804688 " fill-opacity="1" fill-rule="evenodd"/><path fill="#f2c500" d="M 90.164062 193.488281 L 118.792969 193.488281 L 118.792969 210.011719 C 118.792969 217.933594 112.382812 224.355469 104.480469 224.355469 C 96.574219 224.355469 90.164062 217.933594 90.164062 210.011719 Z M 90.164062 193.488281 " fill-opacity="1" fill-rule="nonzero"/><path fill="#e94b35" d="M 118.792969 193.488281 L 147.421875 193.488281 L 147.421875 210.011719 C 147.421875 217.933594 141.011719 224.355469 133.105469 224.355469 C 125.203125 224.355469 118.792969 217.933594 118.792969 210.011719 Z M 118.792969 193.488281 " fill-opacity="1" fill-rule="evenodd"/><path fill="#e94b35" d="M 141.695312 180.648438 C 141.695312 186.320312 137.855469 190.914062 133.105469 190.914062 C 128.355469 190.914062 124.519531 186.320312 124.519531 180.648438 C 124.519531 174.976562 128.355469 170.378906 133.105469 170.378906 C 137.855469 170.378906 141.695312 174.976562 141.695312 180.648438 Z M 141.695312 180.648438 " fill-opacity="1" fill-rule="evenodd"/><path fill="#d9d9d9" d="M 168.761719 165.785156 L 168.761719 225.234375 L 171.886719 225.234375 L 171.886719 231.492188 L 153.148438 231.492188 L 153.148438 225.234375 L 156.269531 225.234375 L 156.269531 165.785156 Z M 168.761719 165.785156 " fill-opacity="1" fill-rule="evenodd"/><path fill="#e94b35" d="M 168.761719 165.785156 C 168.761719 169.238281 165.964844 172.042969 162.515625 172.042969 C 159.066406 172.042969 156.269531 169.238281 156.269531 165.785156 C 156.269531 162.332031 159.066406 159.527344 162.515625 159.527344 C 165.964844 159.527344 168.761719 162.332031 168.761719 165.785156 Z M 168.761719 165.785156 " fill-opacity="1" fill-rule="evenodd"/><path fill="#e94b35" d="M 143.777344 153.269531 C 143.777344 158.453125 132.585938 162.65625 118.792969 162.65625 C 105 162.65625 93.808594 158.453125 93.808594 153.269531 C 93.808594 148.085938 105 143.882812 118.792969 143.882812 C 132.585938 143.882812 143.777344 148.085938 143.777344 153.269531 Z M 143.777344 153.269531 " fill-opacity="1" fill-rule="evenodd"/></svg>