<svg xmlns="http://www.w3.org/2000/svg" xmlns:xlink="http://www.w3.org/1999/xlink" width="500" zoomAndPan="magnify" viewBox="0 0 375 374.999991" height="500" preserveAspectRatio="xMidYMid meet" version="1.0"><defs><clipPath id="346c525416"><path d="M 37.5 37.5 L 337.5 37.5 L 337.5 337.5 L 37.5 337.5 Z M 37.5 37.5 " clip-rule="nonzero"/></clipPath></defs><g clip-path="url(#346c525416)"><path fill="#e92b2b" d="M 337.5 187.5 C 337.5 104.65625 270.34375 37.5 187.5 37.5 C 104.65625 37.5 37.5 104.65625 37.5 187.5 C 37.5 270.34375 104.65625 337.5 187.5 337.5 C 270.34375 337.5 337.5 270.34375 337.5 187.5 Z M 337.5 187.5 " fill-opacity="1" fill-rule="evenodd"/></g><path fill="#fbfbfb" d="M 197.492188 149.085938 C 186.570312 155.054688 184.414062 165.992188 181.238281 176.933594 C 177.9375 165.992188 164.984375 161.617188 164.984375 146.300781 C 164.984375 127.207031 187.460938 117.855469 201.683594 117.855469 C 199.652344 129.792969 208.414062 143.117188 197.492188 149.085938 Z M 197.492188 149.085938 " fill-opacity="1" fill-rule="nonzero"/><path fill="#fbfbfb" d="M 222.1875 183.433594 C 211.628906 176.832031 201.199219 180.40625 190.265625 183.089844 C 197.960938 174.722656 195.226562 161.164062 208.3125 153.507812 C 224.628906 143.960938 243.855469 159.015625 250.96875 171.5 C 239.753906 175.683594 232.746094 190.035156 222.1875 183.433594 Z M 222.1875 183.433594 " fill-opacity="1" fill-rule="nonzero"/><path fill="#fbfbfb" d="M 156.039062 163.566406 C 158.898438 175.800781 168.765625 180.742188 178.371094 186.679688 C 167.089844 187.082031 159.566406 198.628906 144.96875 194.667969 C 126.765625 189.730469 123.679688 165.308594 127.363281 151.386719 C 138.210938 156.460938 153.179688 151.332031 156.039062 163.566406 Z M 156.039062 163.566406 " fill-opacity="1" fill-rule="nonzero"/><path fill="#fbfbfb" d="M 201.257812 220.988281 C 203.355469 208.605469 196.1875 200.117188 189.644531 190.820312 C 200.179688 194.960938 211.566406 187.359375 223.46875 196.839844 C 238.304688 208.65625 231.710938 232.332031 222.941406 243.652344 C 214.917969 234.648438 199.160156 233.375 201.257812 220.988281 Z M 201.257812 220.988281 " fill-opacity="1" fill-rule="nonzero"/><path fill="#fbfbfb" d="M 154.203125 209.105469 C 166.605469 209.46875 173.871094 201.089844 182.019531 193.226562 C 179.480469 204.371094 188.539062 214.726562 180.984375 227.988281 C 171.5625 244.527344 147.484375 241.230469 135.167969 234.023438 C 142.8125 224.71875 141.800781 208.738281 154.203125 209.105469 Z M 154.203125 209.105469 " fill-opacity="1" fill-rule="nonzero"/></svg>