<svg xmlns="http://www.w3.org/2000/svg" xmlns:xlink="http://www.w3.org/1999/xlink" width="500" zoomAndPan="magnify" viewBox="0 0 375 374.999991" height="500" preserveAspectRatio="xMidYMid meet" version="1.0"><defs><clipPath id="9a01c92a19"><path d="M 37.5 87.75 L 337.5 87.75 L 337.5 287.25 L 37.5 287.25 Z M 37.5 87.75 " clip-rule="nonzero"/></clipPath><clipPath id="7ffbde0ede"><path d="M 37.5 210 L 337.5 210 L 337.5 226 L 37.5 226 Z M 37.5 210 " clip-rule="nonzero"/></clipPath><clipPath id="ed5c2aedf7"><path d="M 189 179 L 337.5 179 L 337.5 196 L 189 196 Z M 189 179 " clip-rule="nonzero"/></clipPath><clipPath id="a451e86396"><path d="M 189 149 L 337.5 149 L 337.5 165 L 189 165 Z M 189 149 " clip-rule="nonzero"/></clipPath><clipPath id="a8c99f5473"><path d="M 189 118 L 337.5 118 L 337.5 134 L 189 134 Z M 189 118 " clip-rule="nonzero"/></clipPath><clipPath id="fe42b6355f"><path d="M 189 87.75 L 337.5 87.75 L 337.5 104 L 189 104 Z M 189 87.75 " clip-rule="nonzero"/></clipPath><clipPath id="e315f45160"><path d="M 37.5 241 L 337.5 241 L 337.5 257 L 37.5 257 Z M 37.5 241 " clip-rule="nonzero"/></clipPath><clipPath id="1625225e76"><path d="M 37.5 271 L 337.5 271 L 337.5 287.25 L 37.5 287.25 Z M 37.5 271 " clip-rule="nonzero"/></clipPath><clipPath id="a9646a665b"><path d="M 37.5 87.75 L 190 87.75 L 190 196 L 37.5 196 Z M 37.5 87.75 " clip-rule="nonzero"/></clipPath></defs><g clip-path="url(#9a01c92a19)"><path fill="#ffffff" d="M 337.097656 287.277344 L 37.886719 287.277344 L 37.886719 87.777344 L 337.097656 87.777344 L 337.097656 287.277344 " fill-opacity="1" fill-rule="nonzero"/></g><g clip-path="url(#7ffbde0ede)"><path fill="#d21c31" d="M 337.097656 225.910156 L 37.886719 225.910156 L 37.886719 210.550781 L 337.097656 210.550781 L 337.097656 225.910156 " fill-opacity="1" fill-rule="nonzero"/></g><g clip-path="url(#ed5c2aedf7)"><path fill="#d21c31" d="M 337.097656 195.261719 L 189.46875 195.261719 L 189.46875 179.84375 L 337.097656 179.84375 L 337.097656 195.261719 " fill-opacity="1" fill-rule="nonzero"/></g><g clip-path="url(#a451e86396)"><path fill="#d21c31" d="M 337.097656 164.507812 L 189.46875 164.507812 L 189.46875 149.085938 L 337.097656 149.085938 L 337.097656 164.507812 " fill-opacity="1" fill-rule="nonzero"/></g><g clip-path="url(#a8c99f5473)"><path fill="#d21c31" d="M 337.097656 133.863281 L 189.46875 133.863281 L 189.46875 118.445312 L 337.097656 118.445312 L 337.097656 133.863281 " fill-opacity="1" fill-rule="nonzero"/></g><g clip-path="url(#fe42b6355f)"><path fill="#d21c31" d="M 337.097656 103.132812 L 189.484375 103.132812 L 189.484375 87.777344 L 337.097656 87.777344 L 337.097656 103.132812 " fill-opacity="1" fill-rule="nonzero"/></g><g clip-path="url(#e315f45160)"><path fill="#d21c31" d="M 337.097656 256.597656 L 37.886719 256.597656 L 37.886719 241.242188 L 337.097656 241.242188 L 337.097656 256.597656 " fill-opacity="1" fill-rule="nonzero"/></g><g clip-path="url(#1625225e76)"><path fill="#d21c31" d="M 337.097656 287.277344 L 37.886719 287.277344 L 37.886719 271.917969 L 337.097656 271.917969 L 337.097656 287.277344 " fill-opacity="1" fill-rule="nonzero"/></g><g clip-path="url(#a9646a665b)"><path fill="#363570" d="M 189.84375 195.277344 L 37.886719 195.277344 L 37.886719 87.777344 L 189.84375 87.777344 L 189.84375 195.277344 " fill-opacity="1" fill-rule="nonzero"/></g><path fill="#ffffff" d="M 50.863281 92.058594 L 52.28125 96.421875 L 56.867188 96.421875 L 53.15625 99.117188 L 54.574219 103.480469 L 50.863281 100.785156 L 47.152344 103.480469 L 48.570312 99.117188 L 44.859375 96.421875 L 49.445312 96.421875 L 50.863281 92.058594 " fill-opacity="1" fill-rule="nonzero"/><path fill="#ffffff" d="M 75.980469 92.058594 L 77.398438 96.421875 L 81.984375 96.421875 L 78.273438 99.117188 L 79.691406 103.480469 L 75.980469 100.785156 L 72.269531 103.480469 L 73.6875 99.117188 L 69.976562 96.421875 L 74.5625 96.421875 L 75.980469 92.058594 " fill-opacity="1" fill-rule="nonzero"/><path fill="#ffffff" d="M 101.097656 92.058594 L 102.511719 96.421875 L 107.101562 96.421875 L 103.390625 99.117188 L 104.808594 103.480469 L 101.097656 100.785156 L 97.386719 103.480469 L 98.800781 99.117188 L 95.089844 96.421875 L 99.679688 96.421875 L 101.097656 92.058594 " fill-opacity="1" fill-rule="nonzero"/><path fill="#ffffff" d="M 126.210938 92.058594 L 127.628906 96.421875 L 132.214844 96.421875 L 128.503906 99.117188 L 129.921875 103.480469 L 126.210938 100.785156 L 122.5 103.480469 L 123.917969 99.117188 L 120.207031 96.421875 L 124.792969 96.421875 L 126.210938 92.058594 " fill-opacity="1" fill-rule="nonzero"/><path fill="#ffffff" d="M 151.328125 92.058594 L 152.746094 96.421875 L 157.332031 96.421875 L 153.621094 99.117188 L 155.039062 103.480469 L 151.328125 100.785156 L 147.617188 103.480469 L 149.035156 99.117188 L 145.324219 96.421875 L 149.910156 96.421875 L 151.328125 92.058594 " fill-opacity="1" fill-rule="nonzero"/><path fill="#ffffff" d="M 176.445312 92.058594 L 177.859375 96.421875 L 182.449219 96.421875 L 178.738281 99.117188 L 180.15625 103.480469 L 176.445312 100.785156 L 172.734375 103.480469 L 174.148438 99.117188 L 170.4375 96.421875 L 175.027344 96.421875 L 176.445312 92.058594 " fill-opacity="1" fill-rule="nonzero"/><path fill="#ffffff" d="M 63.4375 102.792969 L 64.855469 107.152344 L 69.441406 107.152344 L 65.730469 109.851562 L 67.148438 114.214844 L 63.4375 111.515625 L 59.726562 114.214844 L 61.144531 109.851562 L 57.433594 107.152344 L 62.019531 107.152344 L 63.4375 102.792969 " fill-opacity="1" fill-rule="nonzero"/><path fill="#ffffff" d="M 88.554688 102.792969 L 89.972656 107.152344 L 94.558594 107.152344 L 90.847656 109.851562 L 92.265625 114.214844 L 88.554688 111.515625 L 84.84375 114.214844 L 86.261719 109.851562 L 82.550781 107.152344 L 87.136719 107.152344 L 88.554688 102.792969 " fill-opacity="1" fill-rule="nonzero"/><path fill="#ffffff" d="M 113.667969 102.792969 L 115.085938 107.152344 L 119.675781 107.152344 L 115.964844 109.851562 L 117.378906 114.214844 L 113.667969 111.515625 L 109.957031 114.214844 L 111.375 109.851562 L 107.664062 107.152344 L 112.253906 107.152344 L 113.667969 102.792969 " fill-opacity="1" fill-rule="nonzero"/><path fill="#ffffff" d="M 138.785156 102.792969 L 140.203125 107.152344 L 144.789062 107.152344 L 141.078125 109.851562 L 142.496094 114.214844 L 138.785156 111.515625 L 135.074219 114.214844 L 136.492188 109.851562 L 132.78125 107.152344 L 137.367188 107.152344 L 138.785156 102.792969 " fill-opacity="1" fill-rule="nonzero"/><path fill="#ffffff" d="M 163.902344 102.792969 L 165.320312 107.152344 L 169.90625 107.152344 L 166.195312 109.851562 L 167.613281 114.214844 L 163.902344 111.515625 L 160.191406 114.214844 L 161.609375 109.851562 L 157.898438 107.152344 L 162.484375 107.152344 L 163.902344 102.792969 " fill-opacity="1" fill-rule="nonzero"/><path fill="#ffffff" d="M 63.4375 124.382812 L 64.855469 128.746094 L 69.441406 128.746094 L 65.730469 131.441406 L 67.148438 135.804688 L 63.4375 133.109375 L 59.726562 135.804688 L 61.144531 131.441406 L 57.433594 128.746094 L 62.019531 128.746094 L 63.4375 124.382812 " fill-opacity="1" fill-rule="nonzero"/><path fill="#ffffff" d="M 88.554688 124.382812 L 89.972656 128.746094 L 94.558594 128.746094 L 90.847656 131.441406 L 92.265625 135.804688 L 88.554688 133.109375 L 84.84375 135.804688 L 86.261719 131.441406 L 82.550781 128.746094 L 87.136719 128.746094 L 88.554688 124.382812 " fill-opacity="1" fill-rule="nonzero"/><path fill="#ffffff" d="M 113.667969 124.382812 L 115.085938 128.746094 L 119.675781 128.746094 L 115.964844 131.441406 L 117.378906 135.804688 L 113.667969 133.109375 L 109.957031 135.804688 L 111.375 131.441406 L 107.664062 128.746094 L 112.253906 128.746094 L 113.667969 124.382812 " fill-opacity="1" fill-rule="nonzero"/><path fill="#ffffff" d="M 138.785156 124.382812 L 140.203125 128.746094 L 144.789062 128.746094 L 141.078125 131.441406 L 142.496094 135.804688 L 138.785156 133.109375 L 135.074219 135.804688 L 136.492188 131.441406 L 132.78125 128.746094 L 137.367188 128.746094 L 138.785156 124.382812 " fill-opacity="1" fill-rule="nonzero"/><path fill="#ffffff" d="M 163.902344 124.382812 L 165.320312 128.746094 L 169.90625 128.746094 L 166.195312 131.441406 L 167.613281 135.804688 L 163.902344 133.109375 L 160.191406 135.804688 L 161.609375 131.441406 L 157.898438 128.746094 L 162.484375 128.746094 L 163.902344 124.382812 " fill-opacity="1" fill-rule="nonzero"/><path fill="#ffffff" d="M 63.4375 145.972656 L 64.855469 150.335938 L 69.441406 150.335938 L 65.730469 153.03125 L 67.148438 157.394531 L 63.4375 154.699219 L 59.726562 157.394531 L 61.144531 153.03125 L 57.433594 150.335938 L 62.019531 150.335938 L 63.4375 145.972656 " fill-opacity="1" fill-rule="nonzero"/><path fill="#ffffff" d="M 88.554688 145.972656 L 89.972656 150.335938 L 94.558594 150.335938 L 90.847656 153.03125 L 92.265625 157.394531 L 88.554688 154.699219 L 84.84375 157.394531 L 86.261719 153.03125 L 82.550781 150.335938 L 87.136719 150.335938 L 88.554688 145.972656 " fill-opacity="1" fill-rule="nonzero"/><path fill="#ffffff" d="M 113.667969 145.972656 L 115.085938 150.335938 L 119.675781 150.335938 L 115.964844 153.03125 L 117.378906 157.394531 L 113.667969 154.699219 L 109.957031 157.394531 L 111.375 153.03125 L 107.664062 150.335938 L 112.253906 150.335938 L 113.667969 145.972656 " fill-opacity="1" fill-rule="nonzero"/><path fill="#ffffff" d="M 138.785156 145.972656 L 140.203125 150.335938 L 144.789062 150.335938 L 141.078125 153.03125 L 142.496094 157.394531 L 138.785156 154.699219 L 135.074219 157.394531 L 136.492188 153.03125 L 132.78125 150.335938 L 137.367188 150.335938 L 138.785156 145.972656 " fill-opacity="1" fill-rule="nonzero"/><path fill="#ffffff" d="M 163.902344 145.972656 L 165.320312 150.335938 L 169.90625 150.335938 L 166.195312 153.03125 L 167.613281 157.394531 L 163.902344 154.699219 L 160.191406 157.394531 L 161.609375 153.03125 L 157.898438 150.335938 L 162.484375 150.335938 L 163.902344 145.972656 " fill-opacity="1" fill-rule="nonzero"/><path fill="#ffffff" d="M 63.4375 167.566406 L 64.855469 171.929688 L 69.441406 171.929688 L 65.730469 174.625 L 67.148438 178.988281 L 63.4375 176.292969 L 59.726562 178.988281 L 61.144531 174.625 L 57.433594 171.929688 L 62.019531 171.929688 L 63.4375 167.566406 " fill-opacity="1" fill-rule="nonzero"/><path fill="#ffffff" d="M 88.554688 167.566406 L 89.972656 171.929688 L 94.558594 171.929688 L 90.847656 174.625 L 92.265625 178.988281 L 88.554688 176.292969 L 84.84375 178.988281 L 86.261719 174.625 L 82.550781 171.929688 L 87.136719 171.929688 L 88.554688 167.566406 " fill-opacity="1" fill-rule="nonzero"/><path fill="#ffffff" d="M 113.667969 167.566406 L 115.085938 171.929688 L 119.675781 171.929688 L 115.964844 174.625 L 117.378906 178.988281 L 113.667969 176.292969 L 109.957031 178.988281 L 111.375 174.625 L 107.664062 171.929688 L 112.253906 171.929688 L 113.667969 167.566406 " fill-opacity="1" fill-rule="nonzero"/><path fill="#ffffff" d="M 138.785156 167.566406 L 140.203125 171.929688 L 144.789062 171.929688 L 141.078125 174.625 L 142.496094 178.988281 L 138.785156 176.292969 L 135.074219 178.988281 L 136.492188 174.625 L 132.78125 171.929688 L 137.367188 171.929688 L 138.785156 167.566406 " fill-opacity="1" fill-rule="nonzero"/><path fill="#ffffff" d="M 163.902344 167.566406 L 165.320312 171.929688 L 169.90625 171.929688 L 166.195312 174.625 L 167.613281 178.988281 L 163.902344 176.292969 L 160.191406 178.988281 L 161.609375 174.625 L 157.898438 171.929688 L 162.484375 171.929688 L 163.902344 167.566406 " fill-opacity="1" fill-rule="nonzero"/><path fill="#ffffff" d="M 50.863281 113.609375 L 52.28125 117.972656 L 56.867188 117.972656 L 53.15625 120.667969 L 54.574219 125.03125 L 50.863281 122.335938 L 47.152344 125.03125 L 48.570312 120.667969 L 44.859375 117.972656 L 49.445312 117.972656 L 50.863281 113.609375 " fill-opacity="1" fill-rule="nonzero"/><path fill="#ffffff" d="M 75.980469 113.609375 L 77.398438 117.972656 L 81.984375 117.972656 L 78.273438 120.667969 L 79.691406 125.03125 L 75.980469 122.335938 L 72.269531 125.03125 L 73.6875 120.667969 L 69.976562 117.972656 L 74.5625 117.972656 L 75.980469 113.609375 " fill-opacity="1" fill-rule="nonzero"/><path fill="#ffffff" d="M 101.097656 113.609375 L 102.511719 117.972656 L 107.101562 117.972656 L 103.390625 120.667969 L 104.808594 125.03125 L 101.097656 122.335938 L 97.386719 125.03125 L 98.800781 120.667969 L 95.089844 117.972656 L 99.679688 117.972656 L 101.097656 113.609375 " fill-opacity="1" fill-rule="nonzero"/><path fill="#ffffff" d="M 126.210938 113.609375 L 127.628906 117.972656 L 132.214844 117.972656 L 128.503906 120.667969 L 129.921875 125.03125 L 126.210938 122.335938 L 122.5 125.03125 L 123.917969 120.667969 L 120.207031 117.972656 L 124.792969 117.972656 L 126.210938 113.609375 " fill-opacity="1" fill-rule="nonzero"/><path fill="#ffffff" d="M 151.328125 113.609375 L 152.746094 117.972656 L 157.332031 117.972656 L 153.621094 120.667969 L 155.039062 125.03125 L 151.328125 122.335938 L 147.617188 125.03125 L 149.035156 120.667969 L 145.324219 117.972656 L 149.910156 117.972656 L 151.328125 113.609375 " fill-opacity="1" fill-rule="nonzero"/><path fill="#ffffff" d="M 176.445312 113.609375 L 177.859375 117.972656 L 182.449219 117.972656 L 178.738281 120.667969 L 180.15625 125.03125 L 176.445312 122.335938 L 172.734375 125.03125 L 174.148438 120.667969 L 170.4375 117.972656 L 175.027344 117.972656 L 176.445312 113.609375 " fill-opacity="1" fill-rule="nonzero"/><path fill="#ffffff" d="M 50.863281 135.160156 L 52.28125 139.523438 L 56.867188 139.523438 L 53.15625 142.21875 L 54.574219 146.582031 L 50.863281 143.882812 L 47.152344 146.582031 L 48.570312 142.21875 L 44.859375 139.523438 L 49.445312 139.523438 L 50.863281 135.160156 " fill-opacity="1" fill-rule="nonzero"/><path fill="#ffffff" d="M 75.980469 135.160156 L 77.398438 139.523438 L 81.984375 139.523438 L 78.273438 142.21875 L 79.691406 146.582031 L 75.980469 143.882812 L 72.269531 146.582031 L 73.6875 142.21875 L 69.976562 139.523438 L 74.5625 139.523438 L 75.980469 135.160156 " fill-opacity="1" fill-rule="nonzero"/><path fill="#ffffff" d="M 101.097656 135.160156 L 102.511719 139.523438 L 107.101562 139.523438 L 103.390625 142.21875 L 104.808594 146.582031 L 101.097656 143.882812 L 97.386719 146.582031 L 98.800781 142.21875 L 95.089844 139.523438 L 99.679688 139.523438 L 101.097656 135.160156 " fill-opacity="1" fill-rule="nonzero"/><path fill="#ffffff" d="M 126.210938 135.160156 L 127.628906 139.523438 L 132.214844 139.523438 L 128.503906 142.21875 L 129.921875 146.582031 L 126.210938 143.882812 L 122.5 146.582031 L 123.917969 142.21875 L 120.207031 139.523438 L 124.792969 139.523438 L 126.210938 135.160156 " fill-opacity="1" fill-rule="nonzero"/><path fill="#ffffff" d="M 151.328125 135.160156 L 152.746094 139.523438 L 157.332031 139.523438 L 153.621094 142.21875 L 155.039062 146.582031 L 151.328125 143.882812 L 147.617188 146.582031 L 149.035156 142.21875 L 145.324219 139.523438 L 149.910156 139.523438 L 151.328125 135.160156 " fill-opacity="1" fill-rule="nonzero"/><path fill="#ffffff" d="M 176.445312 135.160156 L 177.859375 139.523438 L 182.449219 139.523438 L 178.738281 142.21875 L 180.15625 146.582031 L 176.445312 143.882812 L 172.734375 146.582031 L 174.148438 142.21875 L 170.4375 139.523438 L 175.027344 139.523438 L 176.445312 135.160156 " fill-opacity="1" fill-rule="nonzero"/><path fill="#ffffff" d="M 50.863281 156.710938 L 52.28125 161.070312 L 56.867188 161.070312 L 53.15625 163.769531 L 54.574219 168.128906 L 50.863281 165.433594 L 47.152344 168.128906 L 48.570312 163.769531 L 44.859375 161.070312 L 49.445312 161.070312 L 50.863281 156.710938 " fill-opacity="1" fill-rule="nonzero"/><path fill="#ffffff" d="M 75.980469 156.710938 L 77.398438 161.070312 L 81.984375 161.070312 L 78.273438 163.769531 L 79.691406 168.128906 L 75.980469 165.433594 L 72.269531 168.128906 L 73.6875 163.769531 L 69.976562 161.070312 L 74.5625 161.070312 L 75.980469 156.710938 " fill-opacity="1" fill-rule="nonzero"/><path fill="#ffffff" d="M 101.097656 156.710938 L 102.511719 161.070312 L 107.101562 161.070312 L 103.390625 163.769531 L 104.808594 168.128906 L 101.097656 165.433594 L 97.386719 168.128906 L 98.800781 163.769531 L 95.089844 161.070312 L 99.679688 161.070312 L 101.097656 156.710938 " fill-opacity="1" fill-rule="nonzero"/><path fill="#ffffff" d="M 126.210938 156.710938 L 127.628906 161.070312 L 132.214844 161.070312 L 128.503906 163.769531 L 129.921875 168.128906 L 126.210938 165.433594 L 122.5 168.128906 L 123.917969 163.769531 L 120.207031 161.070312 L 124.792969 161.070312 L 126.210938 156.710938 " fill-opacity="1" fill-rule="nonzero"/><path fill="#ffffff" d="M 151.328125 156.710938 L 152.746094 161.070312 L 157.332031 161.070312 L 153.621094 163.769531 L 155.039062 168.128906 L 151.328125 165.433594 L 147.617188 168.128906 L 149.035156 163.769531 L 145.324219 161.070312 L 149.910156 161.070312 L 151.328125 156.710938 " fill-opacity="1" fill-rule="nonzero"/><path fill="#ffffff" d="M 176.445312 156.710938 L 177.859375 161.070312 L 182.449219 161.070312 L 178.738281 163.769531 L 180.15625 168.128906 L 176.445312 165.433594 L 172.734375 168.128906 L 174.148438 163.769531 L 170.4375 161.070312 L 175.027344 161.070312 L 176.445312 156.710938 " fill-opacity="1" fill-rule="nonzero"/><path fill="#ffffff" d="M 50.863281 178.257812 L 52.28125 182.621094 L 56.867188 182.621094 L 53.15625 185.316406 L 54.574219 189.679688 L 50.863281 186.984375 L 47.152344 189.679688 L 48.570312 185.316406 L 44.859375 182.621094 L 49.445312 182.621094 L 50.863281 178.257812 " fill-opacity="1" fill-rule="nonzero"/><path fill="#ffffff" d="M 75.980469 178.257812 L 77.398438 182.621094 L 81.984375 182.621094 L 78.273438 185.316406 L 79.691406 189.679688 L 75.980469 186.984375 L 72.269531 189.679688 L 73.6875 185.316406 L 69.976562 182.621094 L 74.5625 182.621094 L 75.980469 178.257812 " fill-opacity="1" fill-rule="nonzero"/><path fill="#ffffff" d="M 101.097656 178.257812 L 102.511719 182.621094 L 107.101562 182.621094 L 103.390625 185.316406 L 104.808594 189.679688 L 101.097656 186.984375 L 97.386719 189.679688 L 98.800781 185.316406 L 95.089844 182.621094 L 99.679688 182.621094 L 101.097656 178.257812 " fill-opacity="1" fill-rule="nonzero"/><path fill="#ffffff" d="M 126.210938 178.257812 L 127.628906 182.621094 L 132.214844 182.621094 L 128.503906 185.316406 L 129.921875 189.679688 L 126.210938 186.984375 L 122.5 189.679688 L 123.917969 185.316406 L 120.207031 182.621094 L 124.792969 182.621094 L 126.210938 178.257812 " fill-opacity="1" fill-rule="nonzero"/><path fill="#ffffff" d="M 151.328125 178.257812 L 152.746094 182.621094 L 157.332031 182.621094 L 153.621094 185.316406 L 155.039062 189.679688 L 151.328125 186.984375 L 147.617188 189.679688 L 149.035156 185.316406 L 145.324219 182.621094 L 149.910156 182.621094 L 151.328125 178.257812 " fill-opacity="1" fill-rule="nonzero"/><path fill="#ffffff" d="M 176.445312 178.257812 L 177.859375 182.621094 L 182.449219 182.621094 L 178.738281 185.316406 L 180.15625 189.679688 L 176.445312 186.984375 L 172.734375 189.679688 L 174.148438 185.316406 L 170.4375 182.621094 L 175.027344 182.621094 L 176.445312 178.257812 " fill-opacity="1" fill-rule="nonzero"/></svg>