<svg xmlns="http://www.w3.org/2000/svg" xmlns:xlink="http://www.w3.org/1999/xlink" width="500" zoomAndPan="magnify" viewBox="0 0 375 374.999991" height="500" preserveAspectRatio="xMidYMid meet" version="1.0"><defs><clipPath id="246a30bf64"><path d="M 37.5 37.5 L 337.5 37.5 L 337.5 337.5 L 37.5 337.5 Z M 37.5 37.5 " clip-rule="nonzero"/></clipPath><clipPath id="47a326f7bd"><path d="M 79 220 L 296 220 L 296 337.5 L 79 337.5 Z M 79 220 " clip-rule="nonzero"/></clipPath></defs><g clip-path="url(#246a30bf64)"><path fill="#ff9561" d="M 337.523438 187.511719 C 337.523438 189.964844 337.460938 192.421875 337.34375 194.871094 C 337.222656 197.324219 337.042969 199.773438 336.800781 202.214844 C 336.558594 204.660156 336.257812 207.09375 335.898438 209.523438 C 335.539062 211.949219 335.121094 214.371094 334.640625 216.777344 C 334.160156 219.183594 333.625 221.578125 333.027344 223.960938 C 332.429688 226.34375 331.777344 228.707031 331.0625 231.058594 C 330.351562 233.40625 329.582031 235.738281 328.753906 238.046875 C 327.925781 240.359375 327.042969 242.648438 326.105469 244.917969 C 325.164062 247.1875 324.167969 249.429688 323.121094 251.648438 C 322.070312 253.867188 320.96875 256.0625 319.808594 258.226562 C 318.652344 260.390625 317.441406 262.527344 316.179688 264.632812 C 314.917969 266.738281 313.605469 268.8125 312.242188 270.851562 C 310.878906 272.894531 309.464844 274.902344 308 276.875 C 306.539062 278.84375 305.027344 280.78125 303.472656 282.675781 C 301.914062 284.574219 300.3125 286.433594 298.664062 288.253906 C 297.015625 290.070312 295.320312 291.847656 293.585938 293.585938 C 291.847656 295.320312 290.070312 297.015625 288.253906 298.664062 C 286.433594 300.3125 284.574219 301.914062 282.675781 303.472656 C 280.78125 305.027344 278.84375 306.539062 276.875 308 C 274.902344 309.464844 272.894531 310.878906 270.851562 312.242188 C 268.8125 313.605469 266.738281 314.917969 264.632812 316.179688 C 262.527344 317.441406 260.390625 318.652344 258.226562 319.808594 C 256.0625 320.96875 253.867188 322.070312 251.648438 323.121094 C 249.429688 324.167969 247.1875 325.164062 244.917969 326.105469 C 242.648438 327.042969 240.359375 327.925781 238.046875 328.753906 C 235.738281 329.582031 233.40625 330.351562 231.058594 331.0625 C 228.707031 331.777344 226.34375 332.429688 223.960938 333.027344 C 221.578125 333.625 219.183594 334.160156 216.777344 334.640625 C 214.371094 335.121094 211.949219 335.539062 209.523438 335.898438 C 207.09375 336.257812 204.660156 336.558594 202.214844 336.800781 C 199.773438 337.042969 197.324219 337.222656 194.871094 337.34375 C 192.421875 337.460938 189.964844 337.523438 187.511719 337.523438 C 185.054688 337.523438 182.601562 337.460938 180.152344 337.34375 C 177.699219 337.222656 175.25 337.042969 172.808594 336.800781 C 170.363281 336.558594 167.929688 336.257812 165.5 335.898438 C 163.070312 335.539062 160.652344 335.121094 158.246094 334.640625 C 155.835938 334.160156 153.441406 333.625 151.0625 333.027344 C 148.679688 332.429688 146.316406 331.777344 143.964844 331.0625 C 141.617188 330.351562 139.285156 329.582031 136.972656 328.753906 C 134.664062 327.925781 132.371094 327.042969 130.105469 326.105469 C 127.835938 325.164062 125.59375 324.167969 123.375 323.121094 C 121.152344 322.070312 118.960938 320.96875 116.796875 319.808594 C 114.632812 318.652344 112.496094 317.441406 110.390625 316.179688 C 108.285156 314.917969 106.210938 313.605469 104.167969 312.242188 C 102.128906 310.878906 100.121094 309.464844 98.148438 308 C 96.179688 306.539062 94.242188 305.027344 92.34375 303.472656 C 90.449219 301.914062 88.589844 300.3125 86.769531 298.664062 C 84.949219 297.015625 83.171875 295.320312 81.4375 293.585938 C 79.703125 291.847656 78.007812 290.070312 76.359375 288.253906 C 74.710938 286.433594 73.109375 284.574219 71.550781 282.675781 C 69.992188 280.78125 68.484375 278.84375 67.019531 276.875 C 65.558594 274.902344 64.144531 272.894531 62.78125 270.851562 C 61.417969 268.8125 60.105469 266.738281 58.84375 264.632812 C 57.582031 262.527344 56.371094 260.390625 55.214844 258.226562 C 54.054688 256.0625 52.953125 253.867188 51.902344 251.648438 C 50.851562 249.429688 49.859375 247.1875 48.917969 244.917969 C 47.980469 242.648438 47.097656 240.359375 46.269531 238.046875 C 45.441406 235.738281 44.671875 233.40625 43.960938 231.058594 C 43.246094 228.707031 42.59375 226.34375 41.996094 223.960938 C 41.398438 221.578125 40.863281 219.183594 40.382812 216.777344 C 39.902344 214.371094 39.484375 211.949219 39.125 209.523438 C 38.761719 207.09375 38.464844 204.660156 38.222656 202.214844 C 37.980469 199.773438 37.800781 197.324219 37.679688 194.871094 C 37.558594 192.421875 37.5 189.964844 37.5 187.511719 C 37.5 185.054688 37.558594 182.601562 37.679688 180.152344 C 37.800781 177.699219 37.980469 175.25 38.222656 172.808594 C 38.464844 170.363281 38.761719 167.929688 39.125 165.5 C 39.484375 163.070312 39.902344 160.652344 40.382812 158.246094 C 40.863281 155.835938 41.398438 153.441406 41.996094 151.0625 C 42.59375 148.679688 43.246094 146.316406 43.960938 143.964844 C 44.671875 141.617188 45.441406 139.285156 46.269531 136.972656 C 47.097656 134.664062 47.980469 132.371094 48.917969 130.105469 C 49.859375 127.835938 50.851562 125.59375 51.902344 123.375 C 52.953125 121.152344 54.054688 118.960938 55.214844 116.796875 C 56.371094 114.632812 57.582031 112.496094 58.84375 110.390625 C 60.105469 108.285156 61.417969 106.210938 62.78125 104.167969 C 64.144531 102.128906 65.558594 100.121094 67.019531 98.148438 C 68.484375 96.179688 69.992188 94.242188 71.550781 92.34375 C 73.109375 90.449219 74.710938 88.589844 76.359375 86.769531 C 78.007812 84.949219 79.703125 83.171875 81.4375 81.4375 C 83.171875 79.703125 84.949219 78.007812 86.769531 76.359375 C 88.589844 74.710938 90.449219 73.109375 92.34375 71.550781 C 94.242188 69.992188 96.179688 68.484375 98.148438 67.019531 C 100.121094 65.558594 102.128906 64.144531 104.167969 62.78125 C 106.210938 61.417969 108.285156 60.105469 110.390625 58.84375 C 112.496094 57.582031 114.632812 56.371094 116.796875 55.214844 C 118.960938 54.054688 121.152344 52.953125 123.375 51.902344 C 125.59375 50.851562 127.835938 49.859375 130.105469 48.917969 C 132.371094 47.980469 134.664062 47.097656 136.972656 46.269531 C 139.285156 45.441406 141.617188 44.671875 143.964844 43.960938 C 146.316406 43.246094 148.679688 42.59375 151.0625 41.996094 C 153.441406 41.398438 155.835938 40.863281 158.246094 40.382812 C 160.652344 39.902344 163.070312 39.484375 165.5 39.125 C 167.929688 38.761719 170.363281 38.464844 172.808594 38.222656 C 175.25 37.980469 177.699219 37.800781 180.152344 37.679688 C 182.601562 37.558594 185.054688 37.5 187.511719 37.5 C 189.964844 37.5 192.421875 37.558594 194.871094 37.679688 C 197.324219 37.800781 199.773438 37.980469 202.214844 38.222656 C 204.660156 38.464844 207.09375 38.761719 209.523438 39.125 C 211.949219 39.484375 214.371094 39.902344 216.777344 40.382812 C 219.183594 40.863281 221.578125 41.398438 223.960938 41.996094 C 226.34375 42.59375 228.707031 43.246094 231.058594 43.960938 C 233.40625 44.671875 235.738281 45.441406 238.046875 46.269531 C 240.359375 47.097656 242.648438 47.980469 244.917969 48.917969 C 247.1875 49.859375 249.429688 50.851562 251.648438 51.902344 C 253.867188 52.953125 256.0625 54.054688 258.226562 55.214844 C 260.390625 56.371094 262.527344 57.582031 264.632812 58.84375 C 266.738281 60.105469 268.8125 61.417969 270.851562 62.78125 C 272.894531 64.144531 274.902344 65.558594 276.875 67.019531 C 278.84375 68.484375 280.78125 69.992188 282.675781 71.550781 C 284.574219 73.109375 286.433594 74.710938 288.253906 76.359375 C 290.070312 78.007812 291.847656 79.703125 293.585938 81.4375 C 295.320312 83.171875 297.015625 84.949219 298.664062 86.769531 C 300.3125 88.589844 301.914062 90.449219 303.472656 92.34375 C 305.027344 94.242188 306.539062 96.179688 308 98.148438 C 309.464844 100.121094 310.878906 102.128906 312.242188 104.167969 C 313.605469 106.210938 314.917969 108.285156 316.179688 110.390625 C 317.441406 112.496094 318.652344 114.632812 319.808594 116.796875 C 320.96875 118.960938 322.070312 121.152344 323.121094 123.375 C 324.167969 125.59375 325.164062 127.835938 326.105469 130.105469 C 327.042969 132.371094 327.925781 134.664062 328.753906 136.972656 C 329.582031 139.285156 330.351562 141.617188 331.0625 143.964844 C 331.777344 146.316406 332.429688 148.679688 333.027344 151.0625 C 333.625 153.441406 334.160156 155.835938 334.640625 158.246094 C 335.121094 160.652344 335.539062 163.070312 335.898438 165.5 C 336.257812 167.929688 336.558594 170.363281 336.800781 172.808594 C 337.042969 175.25 337.222656 177.699219 337.34375 180.152344 C 337.460938 182.601562 337.523438 185.054688 337.523438 187.511719 Z M 337.523438 187.511719 " fill-opacity="1" fill-rule="nonzero"/></g><path fill="#002c5c" d="M 225.886719 103.449219 C 218.277344 74.230469 131.472656 62.664062 119.917969 132.28125 C 108.363281 201.898438 67.496094 259.960938 159.65625 274.054688 C 251.816406 288.144531 271.546875 254.042969 265.910156 209.230469 C 260.269531 164.417969 249.84375 100.820312 225.886719 103.449219 Z M 225.886719 103.449219 " fill-opacity="1" fill-rule="nonzero"/><g clip-path="url(#47a326f7bd)"><path fill="#00669b" d="M 295.210938 292.027344 C 293.464844 293.824219 291.679688 295.574219 289.847656 297.28125 C 288.015625 298.988281 286.144531 300.648438 284.230469 302.261719 C 282.316406 303.871094 280.363281 305.4375 278.371094 306.953125 C 276.378906 308.464844 274.351562 309.929688 272.285156 311.34375 C 270.21875 312.757812 268.121094 314.117188 265.984375 315.425781 C 263.851562 316.734375 261.6875 317.992188 259.492188 319.191406 C 257.292969 320.390625 255.070312 321.535156 252.816406 322.625 C 250.5625 323.714844 248.285156 324.746094 245.976562 325.71875 C 243.671875 326.695312 241.34375 327.613281 238.992188 328.46875 C 236.644531 329.328125 234.273438 330.128906 231.878906 330.867188 C 229.488281 331.609375 227.082031 332.289062 224.65625 332.90625 C 222.230469 333.527344 219.792969 334.085938 217.339844 334.582031 C 214.886719 335.078125 212.421875 335.515625 209.949219 335.890625 C 207.472656 336.261719 204.992188 336.574219 202.5 336.824219 C 200.011719 337.074219 197.515625 337.261719 195.015625 337.386719 C 192.515625 337.511719 190.015625 337.574219 187.511719 337.574219 C 185.007812 337.574219 182.507812 337.511719 180.007812 337.386719 C 177.507812 337.261719 175.011719 337.074219 172.523438 336.824219 C 170.03125 336.574219 167.550781 336.261719 165.074219 335.890625 C 162.601562 335.515625 160.136719 335.078125 157.683594 334.582031 C 155.230469 334.085938 152.792969 333.527344 150.367188 332.90625 C 147.941406 332.289062 145.535156 331.609375 143.140625 330.867188 C 140.75 330.128906 138.378906 329.328125 136.027344 328.46875 C 133.679688 327.613281 131.351562 326.695312 129.042969 325.71875 C 126.738281 324.746094 124.460938 323.714844 122.207031 322.625 C 119.953125 321.535156 117.726562 320.390625 115.53125 319.191406 C 113.335938 317.992188 111.171875 316.734375 109.035156 315.425781 C 106.902344 314.117188 104.804688 312.757812 102.738281 311.34375 C 100.671875 309.929688 98.644531 308.464844 96.652344 306.953125 C 94.660156 305.4375 92.707031 303.871094 90.792969 302.261719 C 88.878906 300.648438 87.007812 298.988281 85.175781 297.28125 C 83.34375 295.574219 81.558594 293.824219 79.8125 292.027344 C 80.925781 289.398438 82.128906 286.816406 83.429688 284.273438 C 84.730469 281.734375 86.121094 279.246094 87.601562 276.804688 C 89.085938 274.367188 90.65625 271.988281 92.3125 269.664062 C 93.96875 267.339844 95.707031 265.082031 97.527344 262.882812 C 99.351562 260.6875 101.25 258.5625 103.230469 256.503906 C 105.207031 254.449219 107.257812 252.464844 109.378906 250.558594 C 111.503906 248.652344 113.691406 246.824219 115.949219 245.078125 C 118.207031 243.332031 120.523438 241.667969 122.902344 240.09375 C 125.277344 238.515625 127.710938 237.027344 130.199219 235.628906 C 132.6875 234.230469 135.222656 232.925781 137.804688 231.710938 C 140.386719 230.5 143.011719 229.382812 145.675781 228.359375 C 148.339844 227.339844 151.039062 226.417969 153.769531 225.59375 C 156.503906 224.769531 159.261719 224.046875 162.046875 223.425781 C 164.832031 222.804688 167.636719 222.285156 170.457031 221.867188 C 173.28125 221.453125 176.117188 221.140625 178.960938 220.933594 C 181.808594 220.722656 184.65625 220.617188 187.511719 220.617188 C 190.363281 220.617188 193.214844 220.722656 196.0625 220.933594 C 198.90625 221.140625 201.742188 221.453125 204.5625 221.867188 C 207.386719 222.285156 210.191406 222.804688 212.976562 223.425781 C 215.761719 224.046875 218.519531 224.769531 221.253906 225.59375 C 223.984375 226.417969 226.683594 227.339844 229.347656 228.359375 C 232.011719 229.382812 234.636719 230.5 237.21875 231.710938 C 239.800781 232.925781 242.335938 234.230469 244.824219 235.628906 C 247.3125 237.027344 249.742188 238.515625 252.121094 240.09375 C 254.5 241.667969 256.816406 243.332031 259.074219 245.078125 C 261.332031 246.824219 263.519531 248.652344 265.644531 250.558594 C 267.765625 252.464844 269.816406 254.449219 271.792969 256.503906 C 273.773438 258.5625 275.671875 260.6875 277.492188 262.882812 C 279.316406 265.082031 281.054688 267.339844 282.710938 269.664062 C 284.367188 271.988281 285.9375 274.367188 287.417969 276.804688 C 288.902344 279.246094 290.292969 281.734375 291.59375 284.273438 C 292.894531 286.816406 294.097656 289.398438 295.210938 292.027344 Z M 295.210938 292.027344 " fill-opacity="1" fill-rule="nonzero"/></g><path fill="#ff9561" d="M 187.453125 187.511719 C 188.144531 187.511719 188.835938 187.546875 189.523438 187.613281 C 190.210938 187.679688 190.894531 187.78125 191.574219 187.917969 C 192.25 188.050781 192.921875 188.21875 193.585938 188.421875 C 194.246094 188.621094 194.898438 188.855469 195.535156 189.121094 C 196.175781 189.382812 196.800781 189.679688 197.410156 190.003906 C 198.019531 190.332031 198.613281 190.6875 199.1875 191.070312 C 199.761719 191.457031 200.316406 191.867188 200.851562 192.304688 C 201.386719 192.746094 201.898438 193.207031 202.386719 193.699219 C 202.878906 194.1875 203.339844 194.699219 203.78125 195.234375 C 204.21875 195.769531 204.632812 196.324219 205.015625 196.898438 C 205.398438 197.472656 205.753906 198.066406 206.082031 198.675781 C 206.40625 199.285156 206.703125 199.910156 206.96875 200.550781 C 207.230469 201.191406 207.464844 201.839844 207.664062 202.503906 C 207.867188 203.164062 208.035156 203.835938 208.167969 204.511719 C 208.304688 205.191406 208.40625 205.875 208.472656 206.5625 C 208.542969 207.253906 208.574219 207.941406 208.574219 208.632812 L 208.574219 227.265625 C 208.574219 227.957031 208.542969 228.648438 208.472656 229.335938 C 208.40625 230.023438 208.304688 230.707031 208.167969 231.386719 C 208.035156 232.0625 207.867188 232.734375 207.664062 233.394531 C 207.464844 234.058594 207.230469 234.707031 206.96875 235.347656 C 206.703125 235.988281 206.40625 236.613281 206.082031 237.222656 C 205.753906 237.832031 205.398438 238.425781 205.015625 239 C 204.632812 239.574219 204.21875 240.128906 203.78125 240.664062 C 203.339844 241.199219 202.878906 241.710938 202.386719 242.199219 C 201.898438 242.691406 201.386719 243.152344 200.851562 243.59375 C 200.316406 244.03125 199.761719 244.441406 199.1875 244.828125 C 198.613281 245.210938 198.019531 245.566406 197.410156 245.894531 C 196.800781 246.21875 196.175781 246.515625 195.535156 246.78125 C 194.898438 247.042969 194.246094 247.277344 193.585938 247.476562 C 192.921875 247.679688 192.25 247.847656 191.574219 247.980469 C 190.894531 248.117188 190.210938 248.21875 189.523438 248.285156 C 188.835938 248.351562 188.144531 248.386719 187.453125 248.386719 C 186.761719 248.386719 186.070312 248.351562 185.382812 248.285156 C 184.695312 248.21875 184.011719 248.117188 183.332031 247.980469 C 182.652344 247.847656 181.984375 247.679688 181.320312 247.476562 C 180.660156 247.277344 180.007812 247.042969 179.371094 246.78125 C 178.730469 246.515625 178.105469 246.21875 177.496094 245.894531 C 176.886719 245.566406 176.292969 245.210938 175.71875 244.828125 C 175.140625 244.441406 174.585938 244.03125 174.050781 243.59375 C 173.519531 243.152344 173.007812 242.691406 172.515625 242.199219 C 172.027344 241.710938 171.5625 241.199219 171.125 240.664062 C 170.6875 240.128906 170.273438 239.574219 169.890625 239 C 169.503906 238.425781 169.148438 237.832031 168.824219 237.222656 C 168.5 236.613281 168.203125 235.988281 167.9375 235.347656 C 167.671875 234.707031 167.441406 234.058594 167.238281 233.394531 C 167.039062 232.734375 166.871094 232.0625 166.734375 231.386719 C 166.601562 230.707031 166.5 230.023438 166.433594 229.335938 C 166.363281 228.648438 166.328125 227.957031 166.328125 227.265625 L 166.328125 208.632812 C 166.328125 207.941406 166.363281 207.253906 166.433594 206.5625 C 166.5 205.875 166.601562 205.191406 166.734375 204.511719 C 166.871094 203.835938 167.039062 203.164062 167.238281 202.503906 C 167.441406 201.839844 167.671875 201.191406 167.9375 200.550781 C 168.203125 199.910156 168.5 199.285156 168.824219 198.675781 C 169.148438 198.066406 169.503906 197.472656 169.890625 196.898438 C 170.273438 196.324219 170.6875 195.769531 171.125 195.234375 C 171.5625 194.699219 172.027344 194.1875 172.515625 193.699219 C 173.007812 193.207031 173.519531 192.746094 174.050781 192.304688 C 174.585938 191.867188 175.140625 191.457031 175.71875 191.070312 C 176.292969 190.6875 176.886719 190.332031 177.496094 190.003906 C 178.105469 189.679688 178.730469 189.382812 179.371094 189.121094 C 180.007812 188.855469 180.660156 188.621094 181.320312 188.421875 C 181.984375 188.21875 182.652344 188.050781 183.332031 187.917969 C 184.011719 187.78125 184.695312 187.679688 185.382812 187.613281 C 186.070312 187.546875 186.761719 187.511719 187.453125 187.511719 Z M 187.453125 187.511719 " fill-opacity="1" fill-rule="nonzero"/><path fill="#ff9561" d="M 148.953125 174.210938 C 148.953125 175.085938 148.867188 175.953125 148.695312 176.8125 C 148.527344 177.667969 148.273438 178.5 147.9375 179.308594 C 147.605469 180.117188 147.195312 180.886719 146.707031 181.613281 C 146.222656 182.339844 145.667969 183.011719 145.050781 183.632812 C 144.433594 184.25 143.761719 184.800781 143.03125 185.289062 C 142.304688 185.773438 141.539062 186.183594 140.730469 186.519531 C 139.921875 186.851562 139.089844 187.105469 138.230469 187.277344 C 137.375 187.449219 136.507812 187.53125 135.632812 187.53125 C 134.757812 187.53125 133.890625 187.449219 133.035156 187.277344 C 132.175781 187.105469 131.34375 186.851562 130.535156 186.519531 C 129.726562 186.183594 128.960938 185.773438 128.230469 185.289062 C 127.503906 184.800781 126.832031 184.25 126.214844 183.632812 C 125.59375 183.011719 125.042969 182.339844 124.558594 181.613281 C 124.070312 180.886719 123.660156 180.117188 123.324219 179.308594 C 122.992188 178.5 122.738281 177.667969 122.566406 176.8125 C 122.398438 175.953125 122.3125 175.085938 122.3125 174.210938 C 122.3125 173.335938 122.398438 172.472656 122.566406 171.613281 C 122.738281 170.757812 122.992188 169.921875 123.324219 169.113281 C 123.660156 168.308594 124.070312 167.539062 124.558594 166.8125 C 125.042969 166.085938 125.59375 165.410156 126.214844 164.792969 C 126.832031 164.175781 127.503906 163.621094 128.230469 163.136719 C 128.960938 162.652344 129.726562 162.242188 130.535156 161.90625 C 131.34375 161.570312 132.175781 161.320312 133.035156 161.148438 C 133.890625 160.976562 134.757812 160.890625 135.632812 160.890625 C 136.507812 160.890625 137.375 160.976562 138.230469 161.148438 C 139.089844 161.320312 139.921875 161.570312 140.730469 161.90625 C 141.539062 162.242188 142.304688 162.652344 143.03125 163.136719 C 143.761719 163.621094 144.433594 164.175781 145.050781 164.792969 C 145.667969 165.410156 146.222656 166.085938 146.707031 166.8125 C 147.195312 167.539062 147.605469 168.308594 147.9375 169.113281 C 148.273438 169.921875 148.527344 170.757812 148.695312 171.613281 C 148.867188 172.472656 148.953125 173.335938 148.953125 174.210938 Z M 148.953125 174.210938 " fill-opacity="1" fill-rule="nonzero"/><path fill="#ff9561" d="M 251.351562 174.210938 C 251.351562 175.085938 251.265625 175.953125 251.097656 176.8125 C 250.925781 177.667969 250.671875 178.5 250.339844 179.308594 C 250.003906 180.117188 249.59375 180.886719 249.109375 181.613281 C 248.621094 182.339844 248.070312 183.011719 247.453125 183.632812 C 246.832031 184.25 246.160156 184.800781 245.433594 185.289062 C 244.707031 185.773438 243.9375 186.183594 243.128906 186.519531 C 242.320312 186.851562 241.488281 187.105469 240.632812 187.277344 C 239.773438 187.449219 238.90625 187.53125 238.03125 187.53125 C 237.15625 187.53125 236.292969 187.449219 235.433594 187.277344 C 234.574219 187.105469 233.742188 186.851562 232.933594 186.519531 C 232.128906 186.183594 231.359375 185.773438 230.632812 185.289062 C 229.90625 184.800781 229.230469 184.25 228.613281 183.632812 C 227.996094 183.011719 227.441406 182.339844 226.957031 181.613281 C 226.472656 180.886719 226.0625 180.117188 225.726562 179.308594 C 225.390625 178.5 225.140625 177.667969 224.96875 176.8125 C 224.796875 175.953125 224.710938 175.085938 224.710938 174.210938 C 224.710938 173.335938 224.796875 172.472656 224.96875 171.613281 C 225.140625 170.757812 225.390625 169.921875 225.726562 169.113281 C 226.0625 168.308594 226.472656 167.539062 226.957031 166.8125 C 227.441406 166.085938 227.996094 165.410156 228.613281 164.792969 C 229.230469 164.175781 229.90625 163.621094 230.632812 163.136719 C 231.359375 162.652344 232.128906 162.242188 232.933594 161.90625 C 233.742188 161.570312 234.574219 161.320312 235.433594 161.148438 C 236.292969 160.976562 237.15625 160.890625 238.03125 160.890625 C 238.90625 160.890625 239.773438 160.976562 240.632812 161.148438 C 241.488281 161.320312 242.320312 161.570312 243.128906 161.90625 C 243.9375 162.242188 244.707031 162.652344 245.433594 163.136719 C 246.160156 163.621094 246.832031 164.175781 247.453125 164.792969 C 248.070312 165.410156 248.621094 166.085938 249.109375 166.8125 C 249.59375 167.539062 250.003906 168.308594 250.339844 169.113281 C 250.671875 169.921875 250.925781 170.757812 251.097656 171.613281 C 251.265625 172.472656 251.351562 173.335938 251.351562 174.210938 Z M 251.351562 174.210938 " fill-opacity="1" fill-rule="nonzero"/><path fill="#ffc9ac" d="M 187.511719 103.449219 C 189.210938 103.449219 190.90625 103.53125 192.59375 103.699219 C 194.285156 103.867188 195.964844 104.113281 197.632812 104.445312 C 199.296875 104.777344 200.945312 105.191406 202.570312 105.683594 C 204.195312 106.175781 205.792969 106.75 207.363281 107.398438 C 208.933594 108.046875 210.46875 108.773438 211.964844 109.574219 C 213.464844 110.375 214.917969 111.25 216.332031 112.191406 C 217.746094 113.136719 219.109375 114.148438 220.421875 115.226562 C 221.734375 116.304688 222.992188 117.441406 224.195312 118.644531 C 225.394531 119.847656 226.535156 121.101562 227.613281 122.417969 C 228.691406 123.730469 229.703125 125.09375 230.644531 126.507812 C 231.589844 127.917969 232.460938 129.375 233.261719 130.871094 C 234.0625 132.371094 234.789062 133.90625 235.441406 135.476562 C 236.089844 137.042969 236.660156 138.644531 237.15625 140.269531 C 237.648438 141.894531 238.0625 143.539062 238.390625 145.207031 C 238.722656 146.875 238.972656 148.550781 239.140625 150.242188 C 239.304688 151.933594 239.390625 153.628906 239.390625 155.328125 L 239.390625 168.738281 C 239.390625 170.4375 239.304688 172.132812 239.140625 173.824219 C 238.972656 175.515625 238.722656 177.191406 238.390625 178.859375 C 238.0625 180.527344 237.648438 182.171875 237.15625 183.796875 C 236.660156 185.425781 236.089844 187.023438 235.441406 188.59375 C 234.789062 190.160156 234.0625 191.695312 233.261719 193.195312 C 232.460938 194.691406 231.589844 196.148438 230.644531 197.5625 C 229.703125 198.972656 228.691406 200.335938 227.613281 201.648438 C 226.535156 202.964844 225.394531 204.222656 224.195312 205.421875 C 222.992188 206.625 221.734375 207.765625 220.421875 208.839844 C 219.109375 209.917969 217.746094 210.929688 216.332031 211.875 C 214.917969 212.820312 213.464844 213.691406 211.964844 214.492188 C 210.46875 215.292969 208.933594 216.019531 207.363281 216.667969 C 205.792969 217.320312 204.195312 217.890625 202.570312 218.382812 C 200.945312 218.875 199.296875 219.289062 197.632812 219.621094 C 195.964844 219.953125 194.285156 220.203125 192.59375 220.367188 C 190.90625 220.535156 189.210938 220.617188 187.511719 220.617188 C 185.8125 220.617188 184.117188 220.535156 182.425781 220.367188 C 180.734375 220.203125 179.054688 219.953125 177.390625 219.621094 C 175.722656 219.289062 174.078125 218.878906 172.449219 218.382812 C 170.824219 217.890625 169.226562 217.320312 167.65625 216.667969 C 166.089844 216.019531 164.554688 215.292969 163.054688 214.492188 C 161.558594 213.691406 160.101562 212.820312 158.6875 211.875 C 157.277344 210.929688 155.914062 209.917969 154.597656 208.839844 C 153.285156 207.765625 152.027344 206.625 150.828125 205.421875 C 149.625 204.222656 148.484375 202.964844 147.40625 201.648438 C 146.332031 200.335938 145.320312 198.972656 144.375 197.5625 C 143.429688 196.148438 142.558594 194.691406 141.757812 193.195312 C 140.957031 191.695312 140.230469 190.160156 139.582031 188.59375 C 138.929688 187.023438 138.359375 185.425781 137.867188 183.796875 C 137.371094 182.171875 136.960938 180.527344 136.628906 178.859375 C 136.296875 177.191406 136.046875 175.515625 135.882812 173.824219 C 135.714844 172.132812 135.632812 170.4375 135.632812 168.738281 L 135.632812 155.328125 C 135.632812 153.628906 135.714844 151.933594 135.882812 150.242188 C 136.046875 148.550781 136.296875 146.875 136.628906 145.207031 C 136.960938 143.539062 137.371094 141.894531 137.867188 140.269531 C 138.359375 138.644531 138.929688 137.042969 139.582031 135.476562 C 140.230469 133.90625 140.957031 132.371094 141.757812 130.871094 C 142.558594 129.375 143.429688 127.917969 144.375 126.507812 C 145.320312 125.09375 146.332031 123.730469 147.40625 122.417969 C 148.484375 121.101562 149.625 119.847656 150.828125 118.644531 C 152.027344 117.441406 153.285156 116.304688 154.597656 115.226562 C 155.914062 114.148438 157.277344 113.136719 158.6875 112.191406 C 160.101562 111.25 161.558594 110.375 163.054688 109.574219 C 164.554688 108.773438 166.089844 108.046875 167.65625 107.398438 C 169.226562 106.75 170.824219 106.175781 172.449219 105.683594 C 174.078125 105.191406 175.722656 104.777344 177.390625 104.445312 C 179.054688 104.113281 180.734375 103.867188 182.425781 103.699219 C 184.117188 103.53125 185.8125 103.449219 187.511719 103.449219 Z M 187.511719 103.449219 " fill-opacity="1" fill-rule="nonzero"/><path fill="#002c5c" d="M 135.632812 160.890625 C 205.308594 161.601562 224.710938 122.140625 224.710938 122.140625 C 224.710938 122.140625 228.003906 153.714844 239.390625 162.03125 C 245.34375 128.910156 227.859375 98.75 182.484375 96.496094 C 137.109375 94.242188 124.855469 146.089844 135.632812 160.890625 Z M 135.632812 160.890625 " fill-opacity="1" fill-rule="nonzero"/></svg>