<svg xmlns="http://www.w3.org/2000/svg" xmlns:xlink="http://www.w3.org/1999/xlink" width="500" zoomAndPan="magnify" viewBox="0 0 375 374.999991" height="500" preserveAspectRatio="xMidYMid meet" version="1.0"><defs><clipPath id="9d33553438"><path d="M 37.5 87.5625 L 337.5 87.5625 L 337.5 287.8125 L 37.5 287.8125 Z M 37.5 87.5625 " clip-rule="nonzero"/></clipPath></defs><g clip-path="url(#9d33553438)"><path fill="#dc2225" d="M 244.554688 169.164062 L 201.007812 169.164062 L 187.507812 127.613281 L 174.011719 169.164062 L 130.425781 169.164062 L 165.683594 194.78125 L 152.203125 236.261719 L 187.507812 210.625 L 222.78125 236.261719 L 209.316406 194.761719 Z M 337.40625 287.824219 L 37.59375 287.824219 L 37.59375 87.5625 L 337.40625 87.5625 L 337.40625 287.824219 " fill-opacity="1" fill-rule="evenodd"/></g><path fill="#efee0e" d="M 244.554688 169.164062 L 209.316406 194.761719 L 222.78125 236.261719 L 187.507812 210.625 L 152.203125 236.261719 L 165.683594 194.78125 L 130.425781 169.164062 L 174.011719 169.164062 L 187.507812 127.613281 L 201.007812 169.164062 L 244.554688 169.164062 " fill-opacity="1" fill-rule="evenodd"/></svg>